<?xml version="1.0" encoding="UTF-8"?>
<svg width="287.79mm" height="115.17mm" version="1.1" viewBox="0 0 287.79 115.17" xmlns="http://www.w3.org/2000/svg">
 <g transform="translate(-5.1399 -84.127)">
  <rect x="5.1399" y="84.127" width="287.79" height="115.17" rx="0" fill="#131415" stroke-width=".20684"/>
  <rect x="15.501" y="93.945" width="173.87" height="95.528" ry="3.574" fill="#202225" stroke-width=".26458"/>
  <g transform="matrix(1.5948 0 0 1.5948 -130.87 44.325)">
   <circle cx="100.41" cy="38.62" r="4.8696" fill="#c8beb7"/>
   <g fill="#808080">
    <rect x="107.57" y="37.251" width="13.311" height="2.4125" ry=".34749" opacity=".5"/>
    <rect x="95.541" y="45.449" width="94.002" height="2.4125" ry=".34749" opacity=".5"/>
    <rect x="95.518" y="48.777" width="90.924" height="2.4125" ry=".34749" opacity=".5"/>
   </g>
  </g>
  <g transform="matrix(1.5948 0 0 1.5948 -130.62 78.816)">
   <circle cx="100.41" cy="38.62" r="4.8696" fill="#87de87"/>
   <g fill="#808080">
    <rect x="107.57" y="37.251" width="21.167" height="2.4125" ry=".34749" opacity=".5"/>
    <rect x="95.541" y="45.449" width="82.711" height="2.4125" ry=".34749" opacity=".5"/>
    <rect x="95.518" y="48.777" width="70.799" height="2.4125" ry=".34749" opacity=".5"/>
   </g>
  </g>
  <g transform="matrix(1 0 0 1.2306 .63181 -42.327)">
   <rect x="19.615" y="173.71" width="164.38" height="9.8648" ry="1.0298" fill="#40444b" stroke-width=".72916"/>
   <g fill="#999">
    <rect x="21.855" y="177.06" width="4.0456" height="3.1701" ry=".45662" opacity=".5"/>
    <rect x="167.32" y="177.06" width="4.0456" height="3.1701" ry=".45662" opacity=".5"/>
    <rect x="162.13" y="177.06" width="4.0456" height="3.1701" ry=".45662" opacity=".5"/>
    <rect x="172.51" y="177.06" width="4.0456" height="3.1701" ry=".45662" opacity=".5"/>
    <rect x="177.69" y="177.06" width="4.0456" height="3.1701" ry=".45662" opacity=".5"/>
   </g>
  </g>
  <g fill="none">
   <g stroke="#ed4245">
    <path d="m17.018 130.76h78.883" stroke-width=".18019"/>
    <path d="m108.88 130.76h78.883" stroke-width=".18019"/>
    <path d="m98.392 130.76h8.0914" opacity=".77978" stroke-width=".49578"/>
   </g>
   <g stroke="#fff">
    <path d="m167.65 154.22-7.2651 1.3977"/>
    <path d="m177.87 152.6-7.3503 0.84098"/>
    <path d="m187.97 150.43-7.1809 1.7803"/>
    <path d="m197.14 147.17-6.8339 2.8341"/>
    <path d="m200.33 150.93c0.52442-2.284 0.31587-4.1648-0.6365-5.6364-0.77967-1.2049-2.058-2.1355-3.8408-2.7885l9.2609 0.44469z"/>
   </g>
  </g>
  <g transform="translate(-1.2636 -4.8108)">
   <g transform="translate(20.729 -7.8628)">
    <path d="m213.81 117.55c-13.748-1e-5 -24.893 3.1116-24.893 6.95 3e-3 0.0391 8e-3 0.0782 0.0139 0.11731h-0.0139v62.148c-1.7e-4 2.4602 1.9943 4.4547 4.4545 4.4545h72.387c0.49345-2e-5 0.89347-0.40003 0.89348-0.89348v-4.1016h-68.955c-3.0067 0-5.427-2.4204-5.427-5.4271v-40.023c0-3.0067 2.4204-5.4271 5.427-5.4271h6.8688l1.4609 1.8371h3.5869l1.4609-1.8371h55.578v-9.7482c2e-5 -0.54284-0.44004-0.9829-0.98288-0.98288h-23.195c-0.0628-0.10034-0.24287-0.24069-0.56379-0.43512-1.2658-0.76686-4.7209-2.375-6.642-3.2313-0.81911-0.36512-1.3585-0.59287-1.7053-0.67644-4.7081-1.7164-12.009-2.7234-19.753-2.7244z" fill="#fc0"/>
    <g transform="translate(148.53 52.599)">
     <path d="m104.34 73.647c-0.38091-1.5e-5 -0.68774 0.3068-0.68795 0.68793l-2e-3 4.1852c-2.1e-4 0.38114 0.30628 0.68799 0.68719 0.688l0.64684 3.9e-5 -0.0647 2.8012 2.3198-2.801 7.125 3.84e-4c0.38092 1.6e-5 0.68774-0.3068 0.68795-0.68793l2e-3 -4.1852c2e-4 -0.38114-0.30628-0.68799-0.68719-0.688z"/>
     <g transform="matrix(1.0766 5.7852e-5 -.0005936 1.0772 -45.035 -58.804)">
      <g transform="matrix(1.414 0 0 1.414 -61.149 -52.941)">
       <circle cx="146.96" cy="126.59" r=".97168" fill="none" stroke="#0f0" stroke-width=".175"/>
       <g transform="translate(.06615 -.013882)" fill="#0f0">
        <rect transform="scale(1,-1)" x="146.33" y="-126.69" width="1.1241" height=".175" ry="0"/>
        <rect transform="matrix(0,1,1,0,0,0)" x="126.04" y="146.81" width="1.1241" height=".175" ry="0"/>
       </g>
      </g>
     </g>
    </g>
   </g>
  </g>
 </g>
</svg>
