<?xml version="1.0" encoding="UTF-8"?>
<svg width="287.79mm" height="115.17mm" version="1.1" viewBox="0 0 287.79 115.17" xmlns="http://www.w3.org/2000/svg">
 <g transform="translate(-5.1399 -84.127)">
  <rect x="5.1399" y="84.127" width="287.79" height="115.17" rx="0" fill="#131415" stroke-width=".20684"/>
  <path d="m156.84 143.92c1.3855-1.89 1.9384-3.6997 1.6462-5.4281-0.23917-1.4151-1.0448-2.7756-2.4236-4.0809l8.3288 4.0735z" fill="none" stroke="#fff"/>
  <g transform="matrix(.78201 0 0 .60125 163.07 55.456)">
   <rect x="13.732" y="92.548" width="132.17" height="101.81" ry="2.5882" fill="#2e85ab"/>
   <path x="15.072577" y="92.547791" width="130.95895" height="101.81483" ry="2.5881658" d="m17.661 92.548h125.78c1.4338 0 2.5882 1.1543 2.5882 2.5882v96.638c0 1.4338-1.1543 2.5882-2.5882 2.5882h-125.78c-1.4338 0-2.5882-1.1543-2.5882-2.5882v-96.638c0-1.4338 1.1543-2.5882 2.5882-2.5882z" fill="#2f3136"/>
  </g>
  <g fill="#808080">
   <rect x="185.42" y="114.06" width="16.739" height="2.4125" ry=".34749" opacity=".5"/>
   <rect x="177.92" y="120.92" width="20.046" height="2.4125" ry=".34749" opacity=".8"/>
   <rect x="177.92" y="158.39" width="20.046" height="2.4125" ry=".34749" opacity=".8"/>
   <rect x="178.02" y="126.17" width="66.846" height="2.4125" ry=".34749" opacity=".5"/>
   <rect x="178.02" y="161.52" width="82.465" height="2.4125" ry=".34749" opacity=".5"/>
   <rect x="178.02" y="164.51" width="44.112" height="2.4125" ry=".34749" opacity=".5"/>
   <rect x="178.02" y="168.61" width="13.155" height="1.3541" ry=".19505" opacity=".5"/>
  </g>
  <g transform="translate(160.07 18.553)" fill="#808080">
   <rect x="17.942" y="113.79" width="25.378" height="2.4125" ry=".34749" opacity=".8"/>
   <rect x="17.942" y="116.93" width="23.724" height="2.4125" ry=".34749" opacity=".8"/>
   <rect x="17.942" y="120.97" width="26.668" height="2.4125" ry=".34749" opacity=".5"/>
   <rect x="17.942" y="124.29" width="26.247" height="2.4125" ry=".34749" opacity=".5"/>
   <rect x="17.942" y="127.62" width="26.481" height="2.4125" ry=".34749" opacity=".5"/>
   <rect x="17.942" y="130.95" width="25.359" height="2.4125" ry=".34749" opacity=".5"/>
   <rect x="17.942" y="134.28" width="24.763" height="2.4125" ry=".34749" opacity=".5"/>
   <rect x="76.569" y="113.8" width="18.036" height="2.4125" ry=".34749" opacity=".8"/>
   <rect x="76.569" y="120.97" width="27.323" height="2.4125" ry=".34749" opacity=".5"/>
   <rect x="76.569" y="124.29" width="26.247" height="2.4125" ry=".34749" opacity=".5"/>
   <rect x="76.569" y="127.62" width="24.61" height="2.4125" ry=".34749" opacity=".5"/>
   <rect x="76.569" y="130.95" width="26.809" height="2.4125" ry=".34749" opacity=".5"/>
   <rect x="76.569" y="134.28" width="24.436" height="2.4125" ry=".34749" opacity=".5"/>
   <rect x="76.635" y="137.61" width="25.967" height="2.4125" ry=".34749" opacity=".5"/>
  </g>
  <g transform="translate(160.47 18.553)" fill="#808080">
   <rect x="47.255" y="113.79" width="22.468" height="2.4125" ry=".34749" opacity=".8"/>
   <rect x="47.255" y="116.93" width="18.367" height="2.4125" ry=".34749" opacity=".8"/>
   <rect x="47.255" y="120.97" width="26.201" height="2.4125" ry=".34749" opacity=".5"/>
   <rect x="47.255" y="124.29" width="25.546" height="2.4125" ry=".34749" opacity=".5"/>
   <rect x="47.255" y="127.62" width="22.786" height="2.4125" ry=".34749" opacity=".5"/>
  </g>
  <circle cx="180.19" cy="115.26" r="2.4832" fill="#87de87"/>
  <g transform="matrix(.097235 0 0 .097235 254.92 110.48)">
   <circle cx="106.15" cy="124.75" r="84.347" fill="#2e86ab" stroke-width="1.2859"/>
   <circle cx="106.15" cy="124.75" r="72.731" fill="#131415" stroke-width="1.1088"/>
   <g fill="#ab3f51" fill-rule="evenodd" stroke-width=".22216">
    <rect x="128.11" y="99.088" width="37.212" height="51.317" ry="4.5159"/>
    <rect x="66.561" y="99.088" width="37.212" height="51.317" ry="4.5159"/>
   </g>
  </g>
  <g>
   <path d="m36.882 92.339c-11.764 0.39686-19.468 3.1116-19.467 6.95 3e-3 0.0391 8e-3 0.0782 0.0139 0.11731h-0.0139v72.402c-1.7e-4 2.4602 1.9943 4.4547 4.4545 4.4545h66.961c0.49345-1e-5 0.89348-0.40003 0.89349-0.89348v-4.1016h-63.53c-3.0067 0-5.4271-2.4204-5.4271-5.4271v-50.276c0-3.0067 2.4204-5.4271 5.4271-5.4271h1.4433l1.4609 1.8371h3.5869l1.4609-1.8371h55.578v-9.7482c2e-5 -0.54284-0.44005-0.9829-0.98289-0.98288h-23.195c-0.0628-0.10034-0.24288-0.24069-0.56379-0.43512-1.2658-0.76686-4.7209-2.375-6.642-3.2313-0.81911-0.36512-1.3585-0.59287-1.7053-0.67644-4.7081-1.7164-12.009-2.7234-19.753-2.7244z" fill="#fc0"/>
   <path d="m27.46 132.55c-1.3326-1.7e-4 -2.413 1.0802-2.4128 2.4128v4.5997c6e-5 1.4312 1.1604 2.5913 2.5916 2.591h8.8615l1.4609 1.8371h3.5869l1.4609-1.8371h48.859c0.41867-3e-5 0.75806-0.33942 0.7581-0.75809v-8.0874c-4e-5 -0.41867-0.33943-0.75807-0.7581-0.7581h-48.859l-1.4609 1.8371h-3.5869l-1.4609-1.8371z" fill="#2a7fff"/>
   <path d="m27.46 142.15c-1.3326-1.7e-4 -2.413 1.0802-2.4128 2.4128v4.5997c6e-5 1.4312 1.1604 2.5913 2.5916 2.591h8.8615l1.4609 1.8371h3.5869l1.4609-1.8371h42.778c0.41867-3e-5 0.75806-0.33942 0.7581-0.75809v-8.0874c-4e-5 -0.41867-0.33943-0.75807-0.7581-0.7581h-42.778l-1.4609 1.8371h-3.5869l-1.4609-1.8371z" fill="#bc5fd3"/>
   <path d="m27.46 151.76c-1.3326-1.7e-4 -2.413 1.0802-2.4128 2.4128v4.5997c6e-5 1.4312 1.1604 2.5913 2.5916 2.591h8.8615l1.4609 1.8371h3.5869l1.4609-1.8371h45.959c0.41867-3e-5 0.75806-0.33942 0.7581-0.75809v-8.0874c-4e-5 -0.41867-0.33943-0.75807-0.7581-0.7581h-45.959l-1.4609 1.8371h-3.5869l-1.4609-1.8371z" fill="#71c837"/>
   <path d="m48.937 134.11c-0.36256 0-0.65418 0.29848-0.65418 0.66973v4.0044c-8e-5 -0.027-1e-3 -0.058-5e-3 -0.0904v0.18862s4e-3 -0.028 5e-3 -0.0708v0.94619c0 0.37125 0.29162 0.67025 0.65418 0.67025h33.553c0.36256 0 0.65419-0.299 0.65419-0.67025v-4.978c0-0.37125-0.29163-0.66972-0.65419-0.66972zm-0.65923 4.5837v-2.898c-0.0263 0.22675-0.20771 0.58055-1.227-0.14004-1.516 0-1.536 3.2191 0 3.2267 1.0027-0.82917 1.1963-0.45658 1.227-0.18862zm0-2.898c9e-3 -0.0774 0-0.14004 0-0.14004z" fill="#ff8080"/>
   <path d="m71.357 153.24c-0.36256 0-0.65418 0.29847-0.65418 0.66973v4.0044c-8e-5 -0.027-1e-3 -0.058-5e-3 -0.0904v0.18862s4e-3 -0.028 5e-3 -0.0708v0.94619c0 0.37125 0.29162 0.67025 0.65418 0.67025h14.844c0.36256 0 0.65419-0.299 0.65419-0.67025v-4.978c0-0.37125-0.29163-0.66973-0.65419-0.66973zm-0.65923 4.5837v-2.898c-0.0263 0.22675-0.20771 0.58055-1.227-0.14004-1.516 0-1.536 3.2191 0 3.2267 1.0027-0.82917 1.1963-0.45658 1.227-0.18862zm0-2.898c9e-3 -0.0774 0-0.14004 0-0.14004z" fill="#e9c6af"/>
   <g transform="translate(-147.49 -2.7991)">
    <path d="m168.35 112.99v53.922c-1.7e-4 2.4602 1.9943 4.4547 4.4545 4.4545h2.3621l1.4407 1.8118h3.5869l1.4407-1.8118h63.556c0.49345-1e-5 0.89347-0.40004 0.89348-0.89349v-4.1016h-68.955c-2.8078 0-4.5255-2.1108-4.817-4.8386-0.0206-0.19322-0.0168-0.25725-0.0147-0.45612l0.24658-23.112c0.0321-3.0065 1.5785-2.6207 4.5852-2.6207h6.8688l1.4609 1.8371h3.5869l1.4609-1.8371h55.578v-21.254c2e-5 -0.54284-0.44004-0.98239-0.98289-0.98237-21.264 0.0311-43.43-0.0352-63.529-0.0858l-1.3901 1.7477h-3.5869l-1.402-1.7632c-2.1788-5e-3 -4.7487-0.0124-6.8435-0.0165z" fill="#a55b6d"/>
    <path d="m183.1 127.81c-0.297 0-0.53588 0.29848-0.53588 0.66973v4.0044c-7e-5 -0.027-1e-3 -0.058-4e-3 -0.0904v0.18862s3e-3 -0.028 4e-3 -0.0708v0.9462c0 0.37125 0.23888 0.67024 0.53588 0.67024h7.9065c0.297 0 0.53589-0.29899 0.53589-0.67024v-4.978c0-0.37125-0.23889-0.66973-0.53589-0.66973zm-0.54002 4.5837v-2.898c-0.0215 0.22674-0.17015 0.58054-1.0051-0.14005-1.2418 0-1.2582 3.2191 0 3.2267 0.82136-0.82917 0.97997-0.45657 1.0051-0.18862zm0-2.898c7e-3 -0.0774 0-0.14005 0-0.14005z" fill="#ff7901"/>
    <path d="m190.61 113.91c-0.297 0-0.53588 0.29847-0.53588 0.66972v4.0044c-7e-5 -0.027-1e-3 -0.058-4e-3 -0.0904v0.18862s3e-3 -0.028 4e-3 -0.0708v0.94619c0 0.37125 0.23888 0.67025 0.53588 0.67025h27.486c0.297 0 0.53589-0.299 0.53589-0.67025v-4.978c0-0.37125-0.23889-0.66972-0.53589-0.66972zm-0.54002 4.5837v-2.898c-0.0215 0.22674-0.17015 0.58055-1.0051-0.14004-1.2418 0-1.2582 3.2191 0 3.2267 0.82136-0.82918 0.97997-0.45658 1.0051-0.18862zm0-2.898c7e-3 -0.0774 0-0.14004 0-0.14004z" fill="#5ba58c"/>
    <path d="m207.34 120.85c-0.297 0-0.53588 0.29847-0.53588 0.66972v4.0044c-7e-5 -0.027-1e-3 -0.058-4e-3 -0.0904v0.18862s3e-3 -0.028 4e-3 -0.0708v0.94619c0 0.37125 0.23888 0.67025 0.53588 0.67025h32.888c0.297 0 0.53589-0.299 0.53589-0.67025v-4.978c0-0.37125-0.23889-0.66972-0.53589-0.66972zm-0.54002 4.5837v-2.898c-0.0215 0.22675-0.17015 0.58056-1.0051-0.14004-1.2418 0-1.2582 3.2191 0 3.2267 0.82136-0.82918 0.97997-0.45659 1.0051-0.18862zm0-2.898c7e-3 -0.0774 0-0.14004 0-0.14004z" fill="#5ba58c"/>
   </g>
  </g>
  <g fill="none" stroke="#fff">
   <path d="m110.68 139.4-7.3939 0.25427"/>
   <path d="m119.67 139.41-7.3982-0.0366"/>
   <path d="m128.31 139.18-7.3836 0.46578"/>
   <path d="m137.39 138.97-7.3982-0.0464"/>
   <path d="m146.29 139.22-7.3884-0.38148"/>
   <path d="m155.22 139.48-7.3946-0.23422"/>
  </g>
 </g>
</svg>
