<?xml version='1.0' encoding='utf-8'?>
<svg xmlns="http://www.w3.org/2000/svg" viewBox="0 0 800 800"><defs><clipPath id="a"><circle cx="400" cy="400" r="400" style="fill:none"/></clipPath><linearGradient id="b" x1="405.16" y1="395.16" x2="180.99" y2="619.33" gradientUnits="userSpaceOnUse"><stop offset="0"/><stop offset="1" stop-opacity="0"/></linearGradient></defs><circle cx="400" cy="400" r="400" style="fill:#1c8adb"/><g style="clip-path:url(#a)"><path d="M226.86,774.42l208.31-208.3a8,8,0,0,0,2.6-5.89V546.69h0l118-118a8,8,0,0,0,2.6-5.89V368.32a8,8,0,0,0-8-8H437.77V239.77a8,8,0,0,0-8-8H370.86a8,8,0,0,0-5.89,2.6L27.9,571.45C53.39,690.07,122,754.91,226.86,774.42Z" style="opacity:0.42;fill:url(#b)"/><path d="M437.77,360.33H550.39a8,8,0,0,1,8,8v54.47a8,8,0,0,1-8,8H437.77V560.23a8,8,0,0,1-8,8H370.86a8,8,0,0,1-8-8V430.79H249.61a8,8,0,0,1-8-8V368.32a8,8,0,0,1,8-8H362.86V239.77a8,8,0,0,1,8-8h58.91a8,8,0,0,1,8,8Z" style="fill:#fff"/></g></svg>