<?xml version="1.0" encoding="UTF-8"?>
<!-- Created with Inkscape (http://www.inkscape.org/) -->
<svg width="287.79mm" height="188.43mm" version="1.1" viewBox="0 0 287.79 188.43" xmlns="http://www.w3.org/2000/svg">
 <g transform="translate(-4.4251 -9.4299)">
  <g>
   <rect x="4.4251" y="9.4299" width="287.79" height="188.43" rx="0" fill="#131415" stroke-width=".26458"/>
   <path d="m148.68 156.75c-1.2946 0.22952-2.1553 1.4794-1.9224 2.7916l0.80359 4.529c0.25008 1.4092 1.58 2.3514 2.9702 2.1045l5.965-1.0582 1.7401 1.557 3.4844-0.61825 1.0982-2.0606 47.851-8.299c0.4067-0.0722 0.6771-0.46488 0.60397-0.87711l-1.4124-7.9631c-0.0732-0.41223-0.46217-0.68789-0.86887-0.61577l-47.851 8.299-1.0982 2.0606-3.4844 0.61825-1.7401-1.557z" fill="#aade87"/>
   <path d="m150.31 165.97c-1.2946 0.22951-2.1553 1.4794-1.9224 2.7915l0.80358 4.529c0.25009 1.4092 1.58 2.3514 2.9702 2.1045l5.965-1.0582 1.7401 1.557 3.4844-0.61825 1.0982-2.0606 52.899-9.2869c0.4067-0.0722 0.6771-0.46488 0.60397-0.87711l-1.4124-7.9631c-0.0732-0.41222-0.46216-0.68789-0.86887-0.61577l-52.899 9.2869-1.0982 2.0606-3.4844 0.61824-1.7401-1.557z" fill="#de87aa"/>
   <path d="m144.91 42.494c-1.2831-0.2869-2.5589 0.53499-2.8494 1.8356l-1.0031 4.489c-0.31208 1.3968 0.55219 2.7786 1.9303 3.0863l9.484 2.1191 1.006 2.1072 3.4537 0.77175 1.8073-1.4785 60.511 13.576c0.40312 0.09004 0.80392-0.16815 0.89525-0.57675l1.7642-7.8926c0.0913-0.40859-0.16149-0.81282-0.5646-0.90296l-60.511-13.576-1.8073 1.4786-3.4537-0.77175-1.006-2.1072z" fill="#8787de"/>
   <path d="m153.66 92.758c-1.3123-0.08091-2.4425 0.93193-2.5242 2.262l-0.28245 4.591c-0.0879 1.4285 0.98357 2.6567 2.393 2.7432l9.6995 0.59657 1.3258 1.9221 3.5322 0.2173 1.5514-1.7451 49.459 3.0431c0.41226 0.0253 0.76733-0.29285 0.79306-0.71074l0.49713-8.0721c0.0257-0.41788-0.28768-0.77717-0.69996-0.8026l-49.459-3.0431-1.5514 1.7451-3.5322-0.21731-1.3258-1.9221z" fill="#80ffe6"/>
   <path d="m171.29 154.22c-0.29244 0.0519-0.4755 0.3875-0.41064 0.75305l0.69957 3.9428c-5e-3 -0.0266-0.0111-0.057-0.0197-0.0883l0.033 0.18571s-2e-3 -0.0281-8e-3 -0.0704l0.1653 0.93165c0.0648 0.36555 0.35233 0.61819 0.64473 0.56631l27.063-4.8017c0.29243-0.0519 0.47541-0.38801 0.41056-0.75355l-0.86968-4.9014c-0.0648-0.36556-0.3522-0.61771-0.64464-0.56581zm0.26906 4.6076-0.50629-2.8534c0.0184 0.22704-0.0661 0.60134-1.0141 0.0377-1.2227 0.21694-0.67648 3.3894 0.56371 3.177 0.66387-0.95991 0.88514-0.62075 0.95669-0.36131zm-0.50629-2.8534c-7e-3 -0.0774-0.0245-0.13787-0.0245-0.13787z" fill="#f95"/>
   <path transform="matrix(.26458 0 0 .26458 4.4251 9.4299)" d="m536.85 89.605c-4.1868-0.064638-7.9985 2.8513-8.959 7.1523l-3.791 16.967c-1.1794 5.279 2.0883 10.503 7.2969 11.666l35.848 8.0098 3.8008 7.9629 13.055 2.918 6.8301-5.5879 210.33 46.998c1.5236 0.3403 3.0376-0.63543 3.3828-2.1797l6.6641-29.83c0.34507-1.5443-0.60925-3.0715-2.1328-3.4121l-210.33-47-6.832 5.5879-13.053-2.918-3.8027-7.9629-36.496-8.1562c-0.60619-0.13554-1.2124-0.20561-1.8105-0.21484zm177.41 45.398c0.13626-0.00397 0.27322 0.00845 0.41015 0.03906l78.709 17.588c1.0955 0.24479 1.73 1.5428 1.4238 2.9121l-4.1016 18.361c-0.30603 1.3694-1.4338 2.2761-2.5293 2.0312l-78.709-17.588c-1.0954-0.24484-1.73-1.5447-1.4238-2.9141l0.7793-3.4902c-0.03931 0.15704-0.07227 0.25781-0.07227 0.25781l0.1543-0.69531c0.12817-1.0091-0.1502-2.5143-3.8633-0.13281-4.6347-1.0651-1.9204-12.926 2.6602-11.902 2.4858 3.3461 3.3257 2.1644 3.5918 1.3457l0.11524-0.51758s-0.02566 0.23785-0.11524 0.51758l-2.3887 10.689c-0.01549 0.12159-0.03592 0.2383-0.05859 0.33789l3.3008-14.771c0.26777-1.1982 1.1634-2.0406 2.1172-2.0684z" fill="#87deaa"/>
   <path d="m165.17 38.827c-0.28985-0.06477-0.58807 0.17442-0.66903 0.53674l-0.87328 3.908c6e-3 -0.02635 0.0117-0.05691 0.0158-0.08909l-0.0411 0.18408s9e-3 -0.02667 0.0194-0.06822l-0.20637 0.92342c-0.081 0.36232 0.087 0.7062 0.37682 0.77097l20.825 4.6534c0.28985 0.06477 0.58819-0.17493 0.66915-0.53724l1.0856-4.8582c0.081-0.36231-0.0871-0.7057-0.37696-0.77047zm-1.5266 4.3556 0.632-2.8283c-0.0705 0.2166-0.29266 0.52947-0.95037-0.35587-1.212-0.27081-1.93 2.8672-0.70368 3.149 0.98242-0.6301 1.056-0.23187 1.022 0.03512zm0.632-2.8283c0.0237-0.07401 0.0305-0.13667 0.0305-0.13667z" fill="#c6afe9"/>
   <path d="m169.54 49.289c-0.28985-0.06477-0.58808 0.17442-0.66904 0.53674l-0.87328 3.908c6e-3 -0.02635 0.0117-0.05691 0.0158-0.08909l-0.0411 0.18407s9e-3 -0.02667 0.0194-0.06822l-0.20635 0.92342c-0.081 0.36231 0.087 0.7062 0.37681 0.77097l30.175 6.7426c0.28985 0.06481 0.58819-0.17493 0.66916-0.53724l1.0856-4.8582c0.081-0.36232-0.0871-0.7057-0.37694-0.77046zm-1.5266 4.3556 0.63199-2.8283c-0.0705 0.21661-0.29267 0.52947-0.95036-0.35586-1.212-0.27082-1.93 2.8672-0.70368 3.149 0.98242-0.6301 1.056-0.23187 1.022 0.03512zm0.63199-2.8283c0.0237-0.07401 0.0305-0.13667 0.0305-0.13667z" fill="#e9afc6"/>
   <path d="m237.48 25.389c-0.29552 0.02967-0.50338 0.35052-0.4663 0.71991l0.40008 3.9844c-3e-3 -0.02687-7e-3 -0.05771-0.013-0.08955l0.0189 0.18767s1.9e-4 -0.02816-3e-3 -0.07085l0.0945 0.94147c0.0371 0.36939 0.30467 0.643 0.60016 0.61335l21.232-2.1319c0.29551-0.02967 0.50333-0.35103 0.46625-0.72043l-0.49735-4.9531c-0.0371-0.36939-0.30459-0.64251-0.60012-0.61283zm-0.0794 4.6147-0.28954-2.8835c1e-3 0.22774-0.11131 0.59463-1.0141-0.03892-1.2356 0.12407-0.93029 3.3287 0.32239 3.2105 0.7344-0.90709 0.92944-0.5522 0.98122-0.2881zm-0.28954-2.8835c-7.5e-4 -0.07771-0.014-0.13932-0.014-0.13932z" fill="#5fd"/>
   <path d="m148.42 147.4c-0.7701 0.13658-1.5437 0.2739-2.3216 0.41244-2.6313 0.51502-4.6071 2.7298-4.0869 5.6618 1.8205 10.419 2.7077 15.341 4.5598 25.779 0.42963 2.4224 2.7418 4.0378 5.1642 3.6078l7.614-1.3505 1.7568 1.5304 3.572-0.63006 1.1096-2.0432 51.554-9.1476c0.48586-0.0862 0.80986-0.54998 0.72365-1.0358l-0.71654-4.0385-59.957 10.638c-2.9604 0.52527-7.7447 0.71781-8.2527-2.2456l-2.5841-15.075c-0.50798-2.9634 4.2084-2.8252 7.1688-3.3504l1.0964-0.19453 1.7594 1.5536 3.5317-0.62663 1.1175-2.0641 52.452-9.3068-1.4573-8.2105c-0.0948-0.53448-0.60501-0.8909-1.1395-0.79605-19.156 3.4676-33.555 5.8668-51.5 8.9818l-1.1002 2.0253-3.572 0.63006-1.7612-1.5344c-2.6695 0.46704-1.9778 0.3404-4.7322 0.82959z" fill="#3771c8"/>
  </g>
  <g transform="translate(-80.871 13.603)">
   <path d="m105.58 62.674c-1.3148 6.2e-5 -2.3804 1.0806-2.38 2.4132l8.6e-4 4.5997c3.1e-4 1.4312 1.1453 2.5911 2.5574 2.5906l9.7186-0.0018 1.4417 1.8368 3.5388-6.58e-4 1.441-1.8374 46.359-0.0086c0.41306-1.21e-4 0.74784-0.33957 0.74779-0.75824l-2e-3 -8.0874c-1e-4 -0.41866-0.335-0.75799-0.74807-0.75795l-46.359 0.0086-1.441 1.8374-3.5388 6.59e-4 -1.4417-1.8368z" fill="#5fd35f"/>
   <path d="m124.82 45.015c-13.748 0.0025-24.893 3.1162-24.892 6.9546 0.0043 0.03904 8e-3 0.07821 0.01396 0.11729l-0.01388-6e-6 0.01459 78.531c2.86e-4 2.4602 1.9951 4.4543 4.4553 4.4537l72.387-0.0134c0.49346-1.1e-4 0.89341-0.4002 0.89333-0.89366l-7.6e-4 -4.1016-68.955 0.0128c-3.0067 5.6e-4 -5.4275-2.4194-5.4281-5.4261l-0.0105-56.405c-5.7e-4 -3.0067 2.4194-5.4275 5.426-5.4281l6.8688-0.0013 1.4612 1.8368 3.5869-6.66e-4 1.4606-1.8374 55.578-0.01032-2e-3 -9.7482c-7e-5 -0.54284-0.44023-0.98282-0.98307-0.9827l-23.195 0.0043c-0.0628-0.10033-0.24292-0.24064-0.56387-0.43501-1.2659-0.76662-4.7214-2.3741-6.6426-3.2301-0.81917-0.36497-1.3586-0.59262-1.7054-0.67613-4.7084-1.7156-12.01-2.7212-19.753-2.7207z" fill="#fc0"/>
   <g transform="matrix(.75403 .0060395 -.0060395 .75403 63.356 -51.959)">
    <circle cx="142.21" cy="140.73" r="2.9766"/>
    <path x="135.96275" y="143.90025" width="12.501562" height="5.8539062" d="m142.2 143.9a6.0641 6.0641 43.047 0 1 6.2673 5.8539h-12.502a6.0471 6.0471 136.8 0 1 6.2342-5.8539z"/>
    <g transform="matrix(1.8674 0 0 1.8674 -129.3 -88.867)">
     <circle cx="146.96" cy="126.59" r=".97168" fill="none" stroke="#0f0" stroke-width=".175"/>
     <g transform="translate(.06615 -.013882)" fill="#0f0">
      <rect transform="scale(1,-1)" x="146.33" y="-126.69" width="1.1241" height=".175" ry="0"/>
      <rect transform="matrix(0,1,1,0,0,0)" x="126.04" y="146.81" width="1.1241" height=".175" ry="0"/>
     </g>
    </g>
   </g>
  </g>
  <g fill="none" stroke="#fff">
   <path d="m237.68 32.184-5.1528 5.3088"/>
   <path d="m142.97 53.374-4.1508 6.1242"/>
   <path d="m137.62 61.593-4.1337 6.1357"/>
   <path d="m131.86 69.714-5.2265 5.2363"/>
   <path d="m124.48 76.558-5.6521 4.7737"/>
   <path d="m149.78 101.01-7.292 1.2496"/>
   <path d="m141.16 149.5-6.8475-2.8011"/>
   <path d="m132.22 145.75-6.8475-2.8011"/>
   <path d="m123.27 142.08-6.9888-2.4271"/>
   <path d="m114.3 138.86-7.1007-2.0773"/>
   <path d="m105.06 135.98-7.2094-1.6611"/>
   <path d="m140.4 102.71-7.292 1.2496"/>
   <path d="m130.84 104.41-7.292 1.2496"/>
   <path d="m121.37 106.11-7.292 1.2496"/>
   <path d="m111.81 107.81-7.292 1.2496"/>
   <path d="m102.29 109.4-7.3885 0.38022"/>
   <path d="m116.7 82.88-5.6521 4.7737"/>
   <path d="m109.05 88.921-6.4389 3.6436"/>
   <path d="m100.3 93.456-7.2651 1.3977"/>
   <path d="m230.96 38.573-6.5155 3.5047"/>
   <path d="m222.29 42.98-6.8575 2.7765"/>
   <path d="m213.02 41.851c-0.7495 2.2203-0.72952 4.1126 0.0714 5.6718 0.65567 1.2766 1.8348 2.33 3.5436 3.1576l-9.1705-1.3657z"/>
   <path d="m91.365 90.802c-1.1152 2.0611-1.4165 3.9292-0.8916 5.6017 0.42965 1.3693 1.413 2.6075 2.9568 3.7128l-8.806-2.9013z"/>
   <path d="m94.203 104.92c-1.2692 1.97-1.712 3.8098-1.3163 5.5174 0.32395 1.3981 1.21 2.7076 2.6649 3.9276l-8.559-3.5646z"/>
   <path d="m99.05 129.68c-1.8521 1.4358-2.8816 3.0236-3.0762 4.7656-0.15945 1.4263 0.2407 2.9559 1.2071 4.5902l-6.8864-6.208z"/>
  </g>
 </g>
</svg>
