<?xml version="1.0" encoding="UTF-8"?>
<!-- Created with Inkscape (http://www.inkscape.org/) -->
<svg width="287.79mm" height="188.43mm" version="1.1" viewBox="0 0 287.79 188.43" xmlns="http://www.w3.org/2000/svg">
 <g transform="translate(91.001 -61.253)">
  <g>
   <rect x="-91.01" y="61.267" width="287.79" height="188.43" rx="0" fill="#131415" stroke-width=".26458"/>
  </g>
  <g transform="translate(-3.4125)">
   <path d="m74.443 205.06-0.0109 7e-3c-0.07 0.0456-0.13997 0.0913-0.2103 0.13647-0.0665 0.0427-0.13599 0.0817-0.20703 0.11769l-0.84994 0.51754-0.41721 0.25404-0.0415 0.0253-0.42788 0.26052c-0.0574 0.0836-0.11446 0.0639-0.27186-0.0294-0.46497-0.27549-0.92827-0.55384-1.3946-0.82714-0.10654-0.0624-0.22459-0.10495-0.3334-0.16389-0.2054-0.11128-0.27385-0.26968-0.19549-0.48678 0.14061-0.38943 0.34271-0.7432 0.63017-1.0465 0.24202-0.2553 0.52041-0.3751 0.88103-0.3187 0.23708 0.0371 0.48156 0.0299 0.7229 0.0361 0.43648 0.0112 0.85221 0.12346 1.2703 0.23637 0.46871 0.12656 0.9455 0.22303 1.4158 0.34402 0.1732 0.0445 0.33805 0.12158 0.52849 0.19183-0.0358 0.0386-0.0459 0.0546-0.0603 0.0642-0.3427 0.22753-0.68426 0.45697-1.0289 0.68164zm0.13965 5.0927c0.14889-0.10662 0.26499-0.26319 0.38291-0.4075 0.0871-0.10662 0.0634-0.2066-0.0403-0.30295-0.0627-0.0583-0.12258-0.11976-0.18275-0.18077-0.0127-0.0129-0.021-0.0302-0.0314-0.0455 3e-3 -8e-3 7e-3 -0.0154 0.0105-0.0231 0.0222 4e-3 0.0458 4e-3 0.0664 0.0123 0.26104 0.10037 0.52347 0.19748 0.7818 0.30434 0.25113 0.10387 0.28297 0.32551 0.082 0.50743-0.40233 0.36428-0.83152 0.69306-1.2704 1.0093h5.7e-4l-2.1019 1.5446c-0.2257 0.20755-0.47226 0.39003-0.72565 0.5649-1.3146 0.90721-2.6202 1.8281-3.9459 2.7188-0.77051 0.51767-1.5729 0.98777-2.3612 1.4789-0.0999 0.0622-0.20178 0.12134-0.30192 0.18315-0.024 0.0148-0.0499 0.0308-0.0663 0.0528-0.14562 0.1951-0.34824 0.31378-0.55989 0.41996-0.27003 0.13543-0.54289 0.2655-0.81082 0.40503-0.0919 0.0479-0.17667 0.11239-0.2575 0.17814-0.12767 0.1038-0.20799 0.11625-0.32177 0.029-0.0118-9e-3 -0.0238-0.0187-0.0364-0.0299-0.21356-0.18968-0.47651-0.25865-0.74726-0.31082-0.77066-0.14861-1.5413-0.29706-2.3115-0.44794-0.76083-0.14901-1.5219-0.2973-2.2815-0.45279-0.56021-0.11474-1.1182-0.24054-1.6771-0.36153-9e-3 -2e-3 -0.0169-6e-3 -0.0233-0.0227 0.18434 0.0227 0.36981 0.0387 0.55284 0.0693 1.1412 0.19072 2.2806 0.39182 3.4231 0.5741 0.46115 0.0736 0.92918 0.10256 1.3927 0.1627 0.34322 0.0445 0.68282 0.1186 1.0266 0.1574 0.33132 0.0374 0.66559 0.0534 0.99907 0.065 0.17746 6e-3 0.33064-0.0818 0.47272-0.18283 0.87912-0.62516 1.7552-1.2547 2.6378-1.8749 1.424-1.0007 2.8546-1.9923 4.2782-2.9936 1.3196-0.92811 2.6358-1.8609 3.9474-2.8003m-12.027 8.729c-0.14506-6e-3 -0.28985-0.0346-0.43321-0.0613-0.88711-0.16584-1.7725-0.34088-2.661-0.49864-0.50365-0.0895-1.0155-0.13408-1.5175-0.23056-0.79542-0.15282-1.5867-0.32778-2.378-0.50134-1.0737-0.23545-2.1464-0.4754-3.2183-0.71897-1.5241-0.34632-3.0468-0.69866-4.5705-1.0466-0.84548-0.19307-1.6975-0.36054-2.5362-0.57923-1.0571-0.27561-2.1039-0.59078-3.1545-0.89102-0.30239-0.0864-0.60255-0.18049-0.90387-0.27055-0.39055-0.11669-0.71013-0.33781-0.95903-0.65899-0.35011-0.45175-0.63921-0.93579-0.74472-1.5076-0.13762-0.7459 7e-3 -1.4458 0.35294-2.113 0.22116-0.4266 0.54544-0.7641 0.90116-1.0766 0.0669-0.0588 0.13022-0.12305 0.20314-0.17332 0.0747-0.0516 0.15923-0.0891 0.23946-0.13273 7e-3 0.0106 0.0142 0.0212 0.0213 0.0318-0.033 0.0375-0.0609 0.0817-0.0997 0.11152-0.29718 0.22757-0.5097 0.52224-0.67928 0.85073-0.0963 0.18646-0.18813 0.37527-0.27959 0.56419-0.0176 0.0363-0.0318 0.0773-0.0347 0.11717-0.039 0.52678-0.0777 1.0528-0.0358 1.5824 0.039 0.49378 0.11991 0.98036 0.21427 1.4653 0.0415 0.21348 0.19446 0.32396 0.38975 0.37546 0.32854 0.0866 0.65963 0.16381 0.99012 0.24317 1.4269 0.34259 2.854 0.68446 4.2811 1.0267 0.65791 0.1578 2.5128 0.6523 2.619 0.69449 0.23319 0.0928 2.5722 0.76254 3.3687 0.92556 0.71594 0.1465 1.4336 0.28472 2.1493 0.43197 0.90554 0.18622 1.8098 0.37877 2.715 0.56705 1.2753 0.26526 2.5506 0.531 3.8266 0.79264 0.47612 0.0976 0.9543 0.18554 1.4321 0.27465 0.0997 0.0186 0.20194 0.0247 0.30327 0.0333 0.12648 0.0108 0.23676 0.0507 0.3078 0.16341 0.0688 0.10925 0.0201 0.21444-0.10873 0.20883m-23.778-12.439c-0.20644-0.11247-0.42366-0.20501-0.63332-0.31175-0.80775-0.41136-1.2676-1.0733-1.4166-1.9624-0.0207-0.12342-0.0929-0.23832-0.11283-0.36173-0.0415-0.25667-0.0639-0.51643-0.0942-0.77497-1e-3 -0.65027 0.10913-1.2826 0.27219-1.9052 0.0991-0.37841 0.35639-0.66209 0.63443-0.92496 0.0115-0.011 0.0231-0.0219 0.0355-0.0318 0.0761-0.0606 0.14765-0.16278 0.22984-0.17229 0.15987-0.0185 0.32889-0.0207 0.48435 0.0621 0.7438 0.39616 1.4912 0.78555 2.2341 1.1835 1.8335 0.98223 3.6703 1.9587 5.4959 2.9554 1.1669 0.63698 2.3168 1.3051 3.4724 1.9626 0.0574 0.0326 0.10208 0.0933 0.14236 0.14849 0.0337 0.0461-1e-3 0.10109-0.0583 0.0904-0.061-0.0114-0.12314-0.033-0.17679-0.0639-0.752-0.43429-1.4936-0.88732-2.2555-1.3034-1.3564-0.74078-2.721-1.4668-4.0894-2.1853-1.2162-0.63857-2.443-1.257-3.663-1.8885-0.16035-0.083-0.31115-0.18602-0.46067-0.28815-0.24859-0.16982-0.51639-0.23596-0.8148-0.18347-0.103 0.0181-0.21026 0.0124-0.31322 0.0307-0.2657 0.0472-0.45804 0.20225-0.55046 0.45052-0.21925 0.58906-0.3956 1.1911-0.38939 1.8276 9e-3 0.88417 0.19888 1.7203 0.67754 2.4786 0.14574 0.23088 0.33876 0.40468 0.5735 0.53319 0.83418 0.45657 1.6731 0.90466 2.5056 1.3641 2.2947 1.2662 4.5873 2.5361 6.8802 3.8054 0.42581 0.23572 0.85011 0.4742 1.2726 0.7157 0.0645 0.0368 0.11721 0.0955 0.17217 0.14741 0.0127 0.012 0.0225 0.0491 0.016 0.0549-0.0153 0.0137-0.0442 0.0256-0.0624 0.0203-0.0848-0.0247-0.17435-0.0438-0.25057-0.0859-2.333-1.2895-4.664-2.5824-6.9965-3.8725-0.91848-0.50799-1.8389-1.0125-2.7607-1.5145m10.143 3.8645c6e-3 0.0136 9e-3 0.0289 0.0179 0.056-0.82571-0.3837-1.6407-0.75693-2.4509-1.1403-1.1006-0.52073-2.2031-1.0378-3.2945-1.5772-1.3184-0.6517-2.5813-1.4037-3.8302-2.179-0.43245-0.2684-0.86606-0.53497-1.3007-0.79979-0.12414-0.0757-0.21245-0.17739-0.27398-0.30841-0.34963-0.74443-0.33395-1.5009-0.0786-2.2658 0.10212-0.30593 0.22363-0.60215 0.43034-0.85587 0.11753-0.14427 0.19084-0.15772 0.36444-0.0885 1.1084 0.44232 2.1323 1.0514 3.1803 1.6122 1.3009 0.69627 2.5957 1.4042 3.8942 2.1051 1.1476 0.61943 2.2944 1.24 3.4039 1.9266 5e-3 3e-3 0.0109 7e-3 0.0163 0.01 0.20966 0.12835 0.22216 0.17575 0.0958 0.3874-0.18144 0.30382-0.2684 0.63925-0.30693 0.9851-0.0393 0.35357-0.0697 0.70953-0.0763 1.065-7e-3 0.36727 0.0479 0.72955 0.2091 1.0674m22.528-2.845c-0.37753 0.0872-0.758 0.16143-1.1374 0.24046-0.51945 0.1083-1.0392 0.21492-1.5584 0.32413-0.26399 0.0556-0.5263 0.11943-0.79081 0.17232-0.84425 0.16871-1.6902 0.32874-2.5335 0.50187-1.3228 0.27154-2.6441 0.54994-3.9655 0.82761-0.78969 0.16592-1.5774 0.3416-2.3682 0.50214-0.4824 0.0979-0.97113 0.16501-1.453 0.26538-0.36651 0.0763-0.72398 0.19589-1.0902 0.27398-0.76752 0.16361-1.538 0.31325-2.3076 0.46739-1.1308 0.2265-2.2618 0.4522-3.3929 0.67762-0.45196 0.0901-0.90411 0.17929-1.3566 0.26673-0.0556 0.0108-0.1186 0.0236-0.16959 8e-3 -0.0581-0.018-0.13993-0.0574-0.15338-0.10423-0.0538-0.1867-0.17583-0.30549-0.33455-0.39787-0.5333-0.31051-1.0613-0.63061-1.6014-0.92878-1.7123-0.9453-3.4311-1.8788-5.1436-2.8238-1.1667-0.64378-2.3283-1.2968-3.4888-1.9515-0.24902-0.14045-0.48634-0.30235-0.72394-0.46194-0.0762-0.0512-0.13611-0.1266-0.20349-0.19096 9e-3 -0.0103 0.0178-0.0206 0.0267-0.0309 0.0254 0.0152 0.0506 0.0306 0.076 0.0458 0.93456 0.56275 1.8567 1.1475 2.8072 1.682 0.92524 0.52021 1.8756 0.99632 2.8219 1.4781 1.1362 0.57843 2.2794 1.1429 3.4201 1.7123 0.53219 0.26562 1.0668 0.52622 1.5982 0.79339 0.41538 0.20886 0.84373 0.21985 1.2915 0.12787 1.2046-0.24739 2.4112-0.48475 3.6175-0.72342 1.3465-0.26637 2.6933-0.53104 4.0404-0.79411 1.2287-0.23994 2.4579-0.47698 3.687-0.7149 1.2101-0.23426 2.4202-0.46919 3.6306-0.70165 1.4386-0.27633 2.8777-0.5495 4.3163-0.82595 0.38366-0.0737 0.7664-0.15263 1.1488-0.23254 0.29925-0.0625 0.42238-0.19211 0.47894-0.49235 1e-3 -6e-3 2e-3 -0.0125 4e-3 -0.0188 0.033-0.15063 0.0722-0.16827 0.19616-0.0797 0.20716 0.14793 0.41224 0.29877 0.61744 0.4494 0.0487 0.0357 0.098 0.0717 0.14073 0.11407 0.20791 0.20623 0.13842 0.47742-0.14618 0.54309m-11.987 4.254c-0.71335-0.14252-1.4215-0.31131-2.1319-0.46855-0.0211-5e-3 -0.0416-0.012-0.0624-0.018-5.6e-4 -6e-3 -1e-3 -0.013-2e-3 -0.0195 0.4422-0.13914 0.87668-0.31564 1.3283-0.40917 0.80477-0.16676 1.6069-0.34693 2.4136-0.50485 0.65159-0.12751 1.3007-0.26792 1.9528-0.39253 0.39584-0.0757 0.80059-0.10981 1.192-0.20226 0.73234-0.17301 1.4593-0.36941 2.1858-0.56598 0.90466-0.2448 1.8064-0.50027 2.7101-0.74881 0.0558-0.0153 0.11717-0.0104 0.17596-0.0149 2e-3 0.0112 5e-3 0.0224 7e-3 0.0335-0.0312 0.0194-0.0617 0.0401-0.0938 0.0578-0.25053 0.13842-0.50636 0.26813-0.75096 0.4163-0.32078 0.19425-0.62823 0.41072-0.95012 0.60295-0.23421 0.13985-0.48984 0.24404-0.72302 0.38533-0.42963 0.26032-0.84788 0.53931-1.2744 0.80485-0.37534 0.23366-0.75932 0.4537-1.1316 0.69214-0.13468 0.0862-0.24742 0.20707-0.36841 0.31409-0.31433 0.27807-0.66536 0.50099-1.0382 0.69063-0.0334 0.017-0.0785 0.0199-0.11697 0.0163-1.1306-0.10754-2.2145-0.44798-3.3224-0.66934m-4.2291-0.32297c2e-3 -0.0149 5e-3 -0.0297 7e-3 -0.0446 0.13149-0.0135 0.26267-0.0337 0.39448-0.0393 0.48173-0.0205 0.94701 0.0774 1.412 0.19119 0.47775 0.11689 0.96019 0.21483 1.4412 0.31795 0.437 0.0937 0.87534 0.18093 1.3122 0.27489 0.78555 0.16899 1.5705 0.34068 2.3555 0.51221 0.0461 0.0101 0.0921 0.025 0.13444 0.0454 0.0171 8e-3 0.0241 0.0372 0.0358 0.0568-0.0177 0.01-0.036 0.029-0.0528 0.0277-0.15091-0.0111-0.30394-0.0132-0.45187-0.0413-1.6571-0.31488-3.3134-0.63387-4.9698-0.95194-0.49589-0.0952-0.9919-0.19008-1.4872-0.2881-0.0458-9e-3 -0.0872-0.0401-0.13062-0.0609m0.86443 0.71881c0.9139 0.15995 1.829 0.31616 2.7376 0.50305 0.97375 0.20027 1.9404 0.43493 2.9107 0.65235 0.0894 0.02 0.18228 0.0244 0.27373 0.0344 0.14897 0.0164 0.20286 0.0747 0.17385 0.22041-0.0291 0.1459-0.0799 0.28722-0.11554 0.43201-0.11299 0.45936-0.10515 0.92731-0.0949 1.3954 8e-3 0.35321 4e-3 0.70909 0.13317 1.0452 0.10912 0.28472 0.23262 0.56387 0.35003 0.84533 0.013 0.0312 0.0279 0.0617 0.0481 0.10606-0.19167-0.0238-0.36738-0.0475-0.54361-0.0671-0.55953-0.0623-1.12-0.11637-1.6786-0.18654-0.43508-0.0546-0.86777-0.12827-1.3014-0.1939-0.74185-0.11223-1.4855-0.21391-2.225-0.34004-0.87995-0.15-1.7605-0.30131-2.6333-0.48741-1.6281-0.34713-3.2531-0.70945-4.8749-1.0852-1.3399-0.31039-2.6726-0.65143-4.0095-0.97464-1.0067-0.24333-2.0156-0.47738-3.0222-0.72087-0.35448-0.0857-0.71319-0.15852-1.0418-0.33172-0.15243-0.0803-0.25718-0.18264-0.31226-0.34979-0.18156-0.55118-0.30143-1.1117-0.26494-1.6952 0.0353-0.56495 0.16453-1.1031 0.53382-1.5519 0.118-0.14343 0.26184-0.2682 0.40567-0.38732 0.19227-0.15923 0.40268-0.1607 0.62213-0.0432 0.51588 0.27613 1.0404 0.53653 1.5502 0.8232 0.98418 0.55348 1.962 1.1182 2.9396 1.6832 0.44614 0.25789 0.88516 0.52809 1.328 0.79171 0.45637 0.27167 0.95485 0.33248 1.473 0.28878 0.98283-0.0829 1.9351-0.32519 2.8901-0.55407 0.36138-0.0866 0.72338-0.17197 1.0883-0.24146 0.13062-0.0249 0.277-0.0276 0.40495 4e-3 0.74237 0.1857 1.504 0.2534 2.2549 0.38485m16.299-4.9393c-0.0467-0.077-0.0245-0.11351 0.0827-0.18105 0.40113-0.25252 0.80366-0.50285 1.2058-0.75378 0.0864-0.0539 0.17201-0.10921 0.26104-0.15844 0.03-0.0166 0.0693-0.0162 0.10431-0.0235 4e-3 0.033 0.0153 0.0671 0.0106 0.0989-0.0521 0.34883-0.10547 0.69751-0.16103 1.0458-0.0639 0.40033-0.036 0.7994 0.01 1.1987 8e-3 0.0661 0.0156 0.1338 0.0102 0.19963-0.0265 0.32022 0.0791 0.59992 0.25026 0.8626 0.12111 0.18586 0.11951 0.18848-0.0646 0.32045-1.7017 1.2199-3.3982 2.4473-5.1072 3.6569-1.6257 1.1506-3.2647 2.2825-4.8978 3.4228-0.16433 0.11469-0.32627 0.23302-0.49275 0.34465-0.1937 0.12983-0.3176 0.10611-0.45419-0.0835-0.36348-0.50436-0.55714-1.0668-0.57732-1.6891-4e-3 -0.13655-0.0108-0.27434-0.0331-0.4087-0.0392-0.23545-9e-4 -0.46142 0.0546-0.68804 0.0582-0.23764 0.11768-0.47512 0.16727-0.71466 0.07-0.33794 0.25634-0.59126 0.54293-0.77429 2.3032-1.471 4.6057-2.9433 6.9125-4.4088 0.22407-0.1424 0.47309-0.24695 0.71582-0.35751 0.0645-0.0294 0.14857-0.0156 0.22367-0.0217 0.45522 0.0208 0.83522-0.12942 1.1318-0.46111 0.0644-0.0765 0.18506-0.25328 0.10471-0.42632m-2.8327-1.4266c0.13173 0.20182 0.28373 0.39047 0.42772 0.58425 0.0204 0.0274 0.0455 0.0513 0.08 0.0896-0.19079 0.0376-0.36674 0.072-0.54253 0.10705-1.0036 0.20007-2.0067 0.40237-3.0107 0.59989-1.0694 0.21034-2.1395 0.41669-3.2095 0.62393-1.3102 0.25375-2.6208 0.50532-3.9306 0.76027-1.3784 0.26832-2.7559 0.54138-4.1345 0.80891-0.88894 0.17245-1.7783 0.34291-2.6689 0.50644-0.73767 0.13544-1.4778 0.25774-2.2161 0.38991-0.16846 0.0302-0.33271 0.0838-0.5011 0.11494-0.23848 0.044-0.38744-0.0562-0.44579-0.2901-0.086-0.34422-0.12688-0.69433-0.12306-1.0488 4e-3 -0.35791 0.0614-0.70778 0.15403-1.054 0.14502-0.5423 0.50671-0.83705 1.0443-0.92934 1.0651-0.18292 2.1316-0.35752 3.1969-0.53904 1.0527-0.17937 2.1052-0.3603 3.157-0.54556 1.0797-0.19024 2.1574-0.39102 3.2375-0.57911 1.3462-0.23445 2.6952-0.45283 4.0404-0.69266 1.3544-0.24154 2.7055-0.50182 4.0584-0.75204 0.64052-0.11848 1.2818-0.23274 1.9228-0.34855 9e-3 -2e-3 0.0187 1e-3 0.0376 3e-3 -0.12151 0.21691-0.24289 0.42836-0.35926 0.64248-0.15383 0.28308-0.28472 0.57425-0.33455 0.89766-0.036 0.2335-8e-3 0.45486 0.11999 0.65079m-31.201-5.9542c0.18952-0.0332 0.37908-0.0666 0.5686-0.0997 0.86093-0.15056 1.7219-0.30072 2.5827-0.45183 0.16799-0.0295 0.32468-0.0145 0.45415 0.1092 0.38577 0.3689 0.83621 0.63897 1.3076 0.88338 0.89631 0.46465 1.8103 0.88799 2.77 1.2038 0.68199 0.22446 1.3737 0.41924 2.056 0.64291 0.17408 0.057 0.34673 0.11848 0.51902 0.18104l-2.9e-4 -2.2e-4 3.7024 1.0974c0.25559 0.0544 0.50656 0.12739 0.75769 0.20914 0.4397 0.14316 0.895 0.24568 1.3501 0.33085 0.23048 0.0431 0.47552 0.0162 0.71364 9e-3 0.4102-0.0126 0.82084-0.0247 1.2299-0.0552 0.43408-0.0324 0.87541-0.0468 1.2971-0.142 0.36603-0.0826 0.73241-0.11482 1.1003-0.1621 0.2544-0.0327 0.50274-0.11036 0.75662-0.14964 0.44292-0.0685 0.8897-0.11255 1.3317-0.18578 0.60184-0.0997 1.2038-0.20262 1.8002-0.32985 1.426-0.3043 2.8504-0.61629 4.272-0.94025 0.63757-0.14534 1.2669-0.32683 1.8999-0.49203 0.0123-3e-3 0.0246-7e-3 0.0363-0.0115 0.1855-0.074 0.28523-0.0741 0.37757 0.0525 0.023 0.0188 0.0478 0.04 0.0764 0.064 0.0298 0.0251 1.4337 0.84282 1.9745 1.0974 0.0144 7e-3 0.0322 0.01 0.0427 0.0204 0.0211 0.0211 0.0381 0.0462 0.0569 0.0695-0.0226 0.0149-0.0439 0.0402-0.0679 0.0429-0.11956 0.0136-0.2419 0.0405-0.35935 0.0275-0.10467-0.0117-0.44538 0.0333-0.86271 0.10149-0.0121 4e-3 -0.0243 8e-3 -0.0364 0.0126-0.0671 0.0253-0.1457 0.0354-0.21762 0.0302-0.17722 0.0306-0.36165 0.0639-0.54321 0.0977-0.0213 0.0119-0.0423 0.0245-0.063 0.0388-0.112 0.0772-0.23756 0.0648-0.35947 0.0683-0.0704 2e-3 -0.13989 8e-3 -0.20894 0.0153-0.35011 0.0706-0.62512 0.13125-0.71518 0.15915-0.20182 0.0626-0.41582 0.086-0.62429 0.12728-0.67331 0.13356-1.3427 0.29447-2.0213 0.39162-0.47257 0.0677-0.93901 0.1586-1.4073 0.245-0.67176 0.12389-1.3447 0.24122-2.0172 0.36125-0.0188 3e-3 -0.0386 5e-3 -0.0563 9e-3 -0.29741 0.15092-0.6244 0.16246-0.94537 0.2029-0.0884 0.0111-0.17671 0.0234-0.26415 0.0399-0.0242 5e-3 -0.0605 0.0119-9e-3 2e-3 -0.63515 0.1225-1.268 0.25885-1.9056 0.36647-0.64558 0.10897-1.2967 0.1847-1.9438 0.28496-0.44909 0.0696-0.89583 0.15458-1.3432 0.23509-0.33348 0.06-0.66663 0.12142-1.0012 0.17436-0.62376 0.10706-1.2712 0.21674-1.3828 0.23616-0.36945 0.0643-0.74236 0.10881-1.1115 0.17452-0.31576 0.0562-0.62635 0.14212-0.94271 0.19358-0.29455 0.0479-0.59352 0.0691-0.89085 0.0987-0.0722 7e-3 -0.12752-0.0238-0.15649-0.0979-0.096-0.24532-0.27155-0.41646-0.50031-0.54182-2.3876-1.3086-4.7724-2.6222-7.1624-3.9266-1.0888-0.59423-2.1868-1.1715-3.2812-1.7553-0.18507-0.0987-0.37352-0.19095-0.55985-0.28727-0.0274-0.0142-0.0516-0.0343-0.0773-0.0516 1e-3 -9e-3 3e-3 -0.0174 4e-3 -0.0261m18.008 1.195c0.0164 0.27306 0.0229 0.54728 0.053 0.81882 0.0158 0.14256 0.0746 0.28011 0.11024 0.42091 0.015 0.0591 0.0201 0.12068 0.0298 0.18117-0.0696 0.01-0.14256 0.0382-0.20807 0.0261-0.37808-0.0696-0.75534-0.14443-1.1311-0.2257-1.071-0.23167-2.1455-0.44945-3.2108-0.70508-2.0657-0.49565-4.0908-1.1274-6.0774-1.8806-0.86471-0.3279-1.7261-0.66452-2.5893-0.99644-0.26836-0.10316-0.44929-0.28687-0.5136-0.56976-0.13794-0.60681-0.27744-1.2135-0.40197-1.8231-0.0481-0.23561-0.0574-0.47918-0.0843-0.71912 0.0134-0.50672 0.15462-0.96659 0.44976-1.378 0.1036-0.14435 0.22853-0.2579 0.41387-0.27832 0.0458-5e-3 0.0965-3e-3 0.13958 0.0116 0.42712 0.14436 0.85511 0.28656 1.2791 0.4397 1.7363 0.62703 3.4702 1.2606 5.207 1.8862 2.1499 0.77445 4.2988 1.5511 6.4081 2.4323 0.26303 0.10993 0.29965 0.15828 0.23155 0.43278-0.15788 0.6365-0.14427 1.2803-0.10542 1.9265m-14.673-5.255c0.0234-0.62333 0.14861-1.232 0.39604-1.8064 0.24564-0.57024 0.71511-0.88015 1.2931-1.0565 0.27684-0.0845 0.53084-0.0687 0.80569 0.0329 1.0936 0.40423 2.2014 0.77062 3.2908 1.1854 1.2442 0.47373 2.4788 0.97356 3.7099 1.481 1.7045 0.70253 3.4018 1.4225 5.102 2.1356 0.1508 0.0633 0.29869 0.13515 0.38756 0.28082 0.0359 0.0588 0.0504 0.13065 0.0747 0.19656-8e-3 9e-3 -0.0161 0.0182-0.0241 0.0273-0.0694-0.0136-0.14287-0.017-0.20763-0.0425-1.0823-0.42613-2.1674-0.84576-3.2442-1.2856-1.3953-0.56992-2.8128-1.0784-4.2325-1.5829-1.4104-0.50114-2.813-1.0241-4.2184-1.5392-0.37009-0.1356-0.73715-0.27955-1.1071-0.4155-0.62126-0.22825-1.14 0.0239-1.4412 0.53867-0.29057 0.49677-0.39118 1.0394-0.42298 1.6061-0.0512 0.91314 0.15 1.781 0.43396 2.6374 0.0802 0.24201 0.19263 0.45653 0.41391 0.59455 3.1838 1.986 13.403 4.2834 13.452 4.2899 0.66933 0.088 1.3251 3e-3 1.9794-0.13293 2.2989-0.47834 4.5806-1.0314 6.8644-1.5758 2.5805-0.61501 5.1618-1.2267 7.7426-1.8401 0.23182-0.0551 0.46425-0.10797 0.69433-0.16958 0.25324-0.0678 0.32587-0.18204 0.29614-0.44002-5e-3 -0.0464-7e-3 -0.0932-0.0125-0.16759 0.28058 0.19744 0.57808 0.32774 0.80609 0.55695l-9e-3 0.0438c-0.0155 3e-3 -0.031 6e-3 -0.0466 9e-3l-1.5628 0.39221c-2e-3 1e-3 -3e-3 2e-3 -5e-3 3e-3 -0.0303 6e-3 -0.0605 0.0137-0.0907 0.0207l-0.37228 0.0934c-0.29662 0.0797-0.59165 0.16616-0.8938 0.22844-0.73373 0.15124-1.458 0.34808-2.1865 0.52487-0.30251 0.0734-0.60784 0.13635-0.90769 0.21933-0.26701 0.0739-0.53223 0.15744-0.79211 0.25332v-0.0185c-0.99278 0.32683-2.2913 0.65043-3.6565 0.94856-0.0623 0.0121-0.12453 0.0244-0.18698 0.0357-0.20154 0.0363-0.40455 0.0645-0.60522 0.10471-0.0491 0.01-0.0945 0.0362-0.14132 0.0577-3.4039 0.70245-6.8853 1.2199-6.8853 1.2199-0.39664 0.0176-0.79296 0.0132-1.1886-0.0538-0.50752-0.086-1.022-0.13373-1.5268-0.23247-0.89838-0.17579-1.779-0.42561-2.6516-0.70181-0.60255-0.19071-1.1963-0.41287-1.8057-0.57736-0.83438-0.22526-1.6335-0.54473-2.4399-0.8456-1.1378-0.42454-2.2626-0.88103-3.3655-1.391-0.37379-0.17285-0.65154-0.4346-0.83613-0.80151-0.22662-0.45036-0.43273-0.90964-0.51404-1.4103-0.0877-0.53971-0.1824-1.0821-0.16186-1.6308m31.135 1.1156c0.0101 0.13301 0.02 0.26725 0.0133 0.40006-0.0213 0.41908 0.0766 0.82108 0.16194 1.2254 0.0638 0.30247 0.0506 0.31672-0.25216 0.39588-1.2911 0.33753-2.5934 0.62687-3.8954 0.91851-1.0908 0.24433-2.1736 0.52399-3.2618 0.7803-1.3173 0.31031-2.6376 0.60745-3.9544 0.91963-1.2455 0.29527-2.488 0.60315-3.7322 0.90383-0.11407 0.0275-0.23052 0.0472-0.34685 0.0631-0.18323 0.025-0.34446-0.079-0.41263-0.26888-0.12063-0.33626-0.20986-0.68012-0.23044-1.0389-0.0357-0.62245-2e-3 -1.2404 0.13237-1.8502 0.0312-0.14173 0.0852-0.27955 0.13958-0.41475 0.0496-0.12325 0.15183-0.19234 0.28066-0.22156 0.84592-0.19151 1.6908-0.38779 2.5379-0.5735 1.6042-0.3517 3.2104-0.6946 4.8147-1.0462 1.7004-0.37272 3.3969-0.7641 5.1005-1.1214 0.75506-0.15836 1.5232-0.25456 2.2859-0.37578 0.28567-0.0454 0.57278-0.082 0.85929-0.12187 0.0436-6e-3 0.0878-8e-3 0.15291-0.0144-0.0672 0.15506-0.11677 0.29686-0.18753 0.42716-0.17281 0.31824-0.23271 0.65573-0.2056 1.0135m-27.987-4.2989c0.94515-0.16584 1.89-0.33323 2.8368-0.48936 0.73055-0.12047 1.464-0.22335 2.1955-0.33758 0.55272-0.0863 1.1037-0.18426 1.6571-0.26605 0.59726-0.0882 1.1968-0.16138 1.7947-0.24548 0.54127-0.0761 1.0838-0.14614 1.622-0.24042 0.71825-0.12581 1.4393-0.21372 2.1673-0.25949 0.41188-0.0259 0.82117-0.0928 1.2318-0.13938 0.49299-0.0559 0.9859-0.11255 1.4794-0.16409 0.67077-0.07 1.3417-0.13941 2.0133-0.20122 0.30013-0.0276 0.6024-0.055 0.90292-0.0482 0.35492 8e-3 0.69118 0.13061 1.0291 0.23119 1.6868 0.5019 3.375 0.9991 5.0597 1.5077 1.2397 0.37427 2.4366 0.86746 3.6398 1.3422 0.63567 0.25081 1.2704 0.50377 1.9055 0.75609 0.0346 0.0138 0.068 0.0305 0.12668 0.0571-0.16477 0.0365-0.30307 0.0695-0.44237 0.0977-0.94044 0.19008-1.8768 0.40551-2.823 0.56056-0.83084 0.1362-1.6349 0.36731-2.4485 0.56881-0.65338 0.16182-1.3189 0.27389-1.977 0.41733-1.3407 0.29224-2.682 0.58198-4.0193 0.88942-1.0092 0.23203-2.0124 0.48984-3.0182 0.7364-0.45326 0.11112-0.90231 0.24575-1.3608 0.32726-0.40558 0.0721-0.82124 0.092-1.2334 0.11984-0.0987 7e-3 -0.21646-0.0227-0.29972-0.0759-0.44615-0.28484-0.94005-0.46186-1.4249-0.66165-1.0169-0.41897-2.028-0.85186-3.0459-1.2684-1.4737-0.60307-2.9429-1.2187-4.43-1.7871-1.1031-0.42163-2.2317-0.7762-3.3482-1.1627-0.0733-0.0254-0.14045-0.0683-0.22121-0.10842 0.128-0.142 0.28711-0.13089 0.43106-0.15617m29.934 13.644c0.0409-0.21467 0.14801-0.38326 0.33132-0.50238 0.35743-0.23234 0.71244-0.46863 1.0739-0.6946 0.23676-0.14798 0.46027-0.30419 0.58194-0.56769v-0.49669c-0.11653-0.26311-0.34283-0.36082-0.60534-0.42099-1.1488-0.26335-2.2961-0.53291-3.4438-0.80083-0.17021-0.0398-0.3068-0.12736-0.41128-0.27247-0.16842-0.23381-0.42469-0.34752-0.67279-0.4709-0.37296-0.18534-0.74512-0.37219-1.1173-0.55897-0.0224-0.0113-0.0423-0.0275-0.0848-0.0555 0.089-0.0354 0.16042-0.0722 0.23628-0.0927 1.3705-0.3712 2.7415-0.74089 4.1126-1.1098 0.31855-0.0857 0.54306-0.26959 0.6369-0.59439 0.0317-0.10973 0.0626-0.21973 0.0919-0.33009 0.0487-0.18304-0.018-0.33001-0.14574-0.45733-0.29567-0.29479-0.63993-0.52097-1.0024-0.72458-0.18251-0.10252-0.35807-0.21988-0.52641-0.34453-0.24477-0.18133-0.31601-0.4471-0.30924-0.73533 0.0136-0.58082 0.23517-1.0756 0.64645-1.4833 0.23621-0.23417 0.53629-0.35942 0.84397-0.46799 0.10185-0.0359 0.20409-0.0709 0.3055-0.10805 0.57811-0.21189 0.49804-0.98884 0.15776-1.2171-0.22152-0.14857-0.45414-0.28134-0.68645-0.41299-0.96619-0.54731-1.9844-0.9699-3.044-1.304-1.1206-0.35337-2.2286-0.74666-3.3462-1.1099-0.6041-0.19637-1.2191-0.35899-1.8252-0.5497-1.0669-0.33575-2.1286-0.68824-3.2158-0.95525-0.0151-4e-3 -0.0291-0.0121-0.0436-0.0183h-1.3563c-0.1886 0.0252-0.37693 0.0525-0.56582 0.0753-0.68195 0.0822-1.3641 0.1625-2.0461 0.24428-0.65039 0.0781-1.3009 0.15546-1.951 0.23609-0.63424 0.0786-1.2683 0.159-1.902 0.24202-1.1285 0.14781-2.2571 0.29518-3.3848 0.44837-1.0868 0.14761-2.1745 0.29085-3.2585 0.45745-0.95155 0.14622-1.8981 0.32455-2.8477 0.48391-0.50465 0.0847-1.0123 0.15187-1.5163 0.2401-0.7278 0.12748-1.4375 0.32564-2.1258 0.59464-0.40403 0.15788-0.76342 0.38871-0.94928 0.79573-0.12027 0.26339-0.1968 0.54946-0.26872 0.83156-0.16656 0.6533-0.23986 1.319-0.22745 1.994 0.0132 0.72187 0.10547 1.4319 0.3088 2.126 0.0152 0.0519 0.0317 0.10363 0.0427 0.15644 0.0311 0.14945-6.8e-4 0.19641-0.15275 0.2224-0.19744 0.0338-0.39536 0.0644-0.593 0.0969-0.84047 0.13818-1.6809 0.27656-2.5213 0.41486-0.10662 0.0176-0.2138 0.0322-0.31979 0.0531-0.26959 0.053-0.45689 0.23358-0.6517 0.41033-0.64454 0.5848-0.96898 1.3322-1.126 2.1683-0.0187 0.0993-0.0385 0.19828-0.0578 0.29742v1.471c0.038 0.19884 0.0677 0.3997 0.11562 0.59611 0.18085 0.74065 0.47345 1.4294 0.9658 2.0216 0.24544 0.29527 0.56621 0.49044 0.90196 0.66202 0.74467 0.38051 1.4915 0.75673 2.2374 1.1348 0.0511 0.0259 0.10276 0.0507 0.15227 0.0793 0.10312 0.0596 0.10567 0.0962 0.0151 0.17842-0.12959 0.11756-0.26351 0.23071-0.38824 0.35317-0.51679 0.50743-0.89344 1.1009-1.0649 1.8096-0.20978 0.86725-0.22255 1.7323 0.14587 2.5625 0.27902 0.62874 0.66738 1.1928 1.1495 1.6871 0.21683 0.22224 0.49307 0.34243 0.78631 0.4307 1.5795 0.4754 3.1781 0.87964 4.78 1.27 1.682 0.40993 3.3641 0.82113 5.0532 1.2008 1.6395 0.36854 3.2853 0.71033 4.9331 1.0403 1.2555 0.25149 2.5189 0.46346 3.7779 0.69819 0.66527 0.12409 1.3277 0.26366 1.9932 0.3866 0.19915 0.0368 0.40395 0.051 0.60681 0.0578 0.35612 0.0121 0.71271 0.0115 1.0691 0.0133 0.0391 2.3e-4 0.0821-0.0121 0.11677-0.0308 1.4285-0.77222 2.8149-1.6162 4.1601-2.5238 2.2446-1.5144 4.4742-3.0509 6.7051-4.5854 0.53959-0.37113 1.0741-0.75276 1.5833-1.1638 0.32707-0.26402 0.60268-0.59161 0.90304-0.88902 0.19087-0.18905 0.22808-0.41614 0.17873-0.66902-0.0819-0.41928-0.30724-0.72668-0.70045-0.90331-0.36822-0.16537-0.73525-0.33375-1.1071-0.49056-0.18518-0.078-0.30358-0.18192-0.29427-0.40264 4e-3 -0.10217-0.0379-0.20556-0.0519-0.30936-0.0358-0.26693 0.0232-0.52511 0.0783-0.78356 0.045-0.21133 0.0903-0.42266 0.1307-0.63491" fill="#eaeaea"/>
   <path d="m56.69 197.56c-0.62934-0.33072-7.0167-2.9691-8.81-3.6391-0.51981-0.19419-1.487-0.53689-2.1494-0.76154-0.66237-0.22465-1.2139-0.41803-1.2256-0.42974-0.01169-0.0117-0.0026-0.0398 0.02043-0.0625 0.04972-0.0491 2.3736-0.45801 4.2188-0.74229 0.72485-0.11167 1.6104-0.25076 1.9678-0.30907 0.35744-0.0583 1.3224-0.19879 2.1444-0.31214s1.7929-0.25506 2.1576-0.3149c0.36471-0.0598 0.96783-0.13945 1.3403-0.17692 1.2649-0.12727 1.5252-0.15493 2.5088-0.26665 2.7007-0.30675 3.7346-0.39057 4.0971-0.33218 0.33707 0.0543 5.341 1.5373 6.5469 1.9404 1.0091 0.33723 4.8924 1.8602 4.8456 1.9003-0.03977 0.0341-1.4918 0.33415-2.8019 0.57898-0.54057 0.10103-1.4553 0.30116-2.0327 0.44475-0.57742 0.14359-1.5525 0.36505-2.1667 0.49213-2.0023 0.41424-4.8739 1.0658-6.88 1.561-1.9714 0.48665-2.311 0.55482-3.0156 0.60526l-0.37974 0.0272z" fill="#b3ff80" stroke-linecap="round" stroke-linejoin="round" stroke-width=".06163"/>
   <path d="m55.468 203.36c-0.58933-0.0618-1.8738-0.26391-2.3901-0.37613-0.88908-0.19325-2.2265-0.59061-4.7579-1.4136-1.8004-0.58532-5.0723-1.9299-5.4778-2.2511-0.40264-0.31889-0.81042-1.1956-0.98527-2.1184-0.14415-0.76073-0.14536-1.8813-0.0026-2.4481 0.24484-0.97237 0.52863-1.3852 1.1659-1.6958 0.3408-0.16614 0.42195-0.188 0.69833-0.18813 0.28901-1.3e-4 0.43809 0.045 1.9657 0.59517 2.3822 0.85794 5.1316 1.9643 10.395 4.1834 0.382 0.16104 0.61708 0.3338 0.61708 0.4535 0 0.0335-0.03055 0.0609-0.0679 0.0609s-1.128-0.42026-2.4236-0.93392c-2.3862-0.946-2.7062-1.0662-6.3765-2.3963-1.1303-0.40958-2.5375-0.92534-3.1273-1.1461-1.1375-0.42591-1.408-0.48687-1.7435-0.39293-0.77656 0.21743-1.2507 1.5353-1.0938 3.04 0.0634 0.60792 0.30883 1.607 0.49021 1.9954 0.15735 0.33701 0.32378 0.45447 1.3196 0.93126 1.9749 0.94558 5.4218 2.0391 10.141 3.2172 2.0885 0.52135 2.468 0.59967 2.9052 0.59967 0.87353 0 1.8703-0.21674 11.167-2.4283 3.0468-0.72475 5.5938-1.3384 5.6599-1.3636 0.14822-0.0566 0.21492-0.17475 0.21492-0.38068v-0.15768l0.28482 0.17858c0.15665 0.0982 0.31942 0.21682 0.36171 0.26356 0.07401 0.0818 0.07044 0.0866-0.09495 0.13006-0.37945 0.0996-3.1168 0.77524-4.4607 1.101-0.78628 0.1906-1.8195 0.46451-2.296 0.6087-1.0175 0.30787-2.7246 0.74091-3.5788 0.90781-0.33171 0.0648-0.71368 0.14584-0.84882 0.18004-0.66154 0.16744-3.6007 0.70671-5.6961 1.0451-1.1264 0.18191-1.6379 0.23381-1.9657 0.19944z" fill="#b3ff80" stroke-linecap="round" stroke-linejoin="round" stroke-width=".06163"/>
   <g fill="#2a7fff" stroke-linecap="round" stroke-linejoin="round">
    <path d="m49.881 206.11c-0.0551-0.13394-2.5514-1.5704-5.5474-3.1921-2.996-1.6217-5.4179-2.9975-5.3821-3.0572 0.03579-0.0598 0.66024-0.20469 1.3877-0.32204 1.3147-0.21209 1.3273-0.2103 2.1048 0.29844 1.2303 0.80496 3.0634 1.5604 5.9646 2.4581 4.2231 1.3067 5.8166 1.694 6.9693 1.694 1.9323-2e-5 10.633-1.5542 13.064-2.3338 0.48154-0.15438 0.69071-0.1002 1.5759 0.4082l1.0206 0.58621-3.3629 0.64541c-7.3091 1.4028-15.173 2.7869-16.873 2.9698-0.59133 0.0636-0.85008 0.0201-0.92216-0.15508z" stroke-width=".24652"/>
    <path d="m48.678 211.87c-0.04404-0.0134-1.7499-0.94853-3.7908-2.0781-4.7683-2.6391-5.8404-3.2269-6.4591-3.5412-0.58348-0.29638-0.86917-0.50015-1.1113-0.79267-0.21923-0.2648-0.43517-0.70096-0.51746-1.0452-0.03531-0.14768-0.09149-0.36092-0.12484-0.47385-0.07686-0.26024-0.12581-0.6845-0.12574-1.0899 1.12e-4 -0.61359 0.20342-1.6679 0.38976-2.0212 0.14019-0.26576 0.63182-0.77234 0.77884-0.8025 0.27755-0.0569 0.19866-0.0958 4.6753 2.3022 3.1533 1.6892 3.9275 2.1139 5.8834 3.2279 1.0128 0.57682 1.2244 0.71474 1.2244 0.79794 0 0.0655-0.21186-0.0388-0.93395-0.45997-1.7582-1.0255-4.0661-2.2663-7.4923-4.0285-1.0036-0.51615-1.9637-1.027-2.1336-1.1352-0.38009-0.24211-0.5264-0.2815-0.93985-0.25303-0.53306 0.0367-0.69768 0.12194-0.84932 0.43968-0.12258 0.25684-0.30563 0.89136-0.36996 1.2824-0.06582 0.4001-0.04319 1.1187 0.05013 1.5916 0.15116 0.76596 0.53866 1.5716 0.89282 1.8562 0.07118 0.0572 0.72064 0.42618 1.4433 0.81996 1.3346 0.72729 7.7542 4.2729 8.8797 4.9043 0.7099 0.39828 0.96586 0.60078 0.6307 0.49897z" stroke-width=".043579"/>
    <path d="m46.752 204.35c-4.0851-2.2445-6.7094-3.6654-8.0163-4.3402-0.19563-0.10101-0.35183-0.18752-0.34712-0.19223 0.0047-5e-3 0.74269-0.13676 1.64-0.29343 1.3078-0.22835 1.6524-0.27892 1.7371-0.25495 0.05813 0.0165 0.19809 0.10954 0.31103 0.20687 0.11294 0.0973 0.28018 0.22741 0.37166 0.28907 0.26489 0.17855 0.1631 0.15901-0.121-0.0232-0.47076-0.30199-0.56146-0.33262-0.97724-0.33008-0.37456 2e-3 -1.1949 0.12414-1.8954 0.28155-0.38337 0.0861-0.50544 0.12809-0.50544 0.17371 0 0.0882 1.6956 1.0603 4.8491 2.7802 2.4916 1.3589 4.6825 2.5802 4.7685 2.6582 0.09708 0.0881-0.20314-0.07-1.8148-0.95554z" stroke-width=".043579"/>
    <g stroke-width=".010895">
     <path d="m50.021 206.47c-0.03644-0.0162-0.05353-0.04-0.10547-0.1468-0.08245-0.16955-0.20507-0.30933-0.3627-0.41346-0.0549-0.0363-1.5024-0.8367-1.7221-0.95228-0.01013-5e-3 -0.01664-0.0115-0.01442-0.0137 0.0021-2e-3 0.10114 0.0484 0.21983 0.11243 0.29664 0.1601 0.51701 0.27196 0.53575 0.27196 0.02455 0 0.01855-0.0137-0.01606-0.0366-0.01746-0.0116-0.0302-0.0226-0.02831-0.0245 0.0061-6e-3 0.68916 0.39926 0.95248 0.56512 0.29208 0.18398 0.37738 0.24764 0.41054 0.30639 0.04233 0.075 0.11879 0.11776 0.25538 0.14283 0.08824 0.0162 0.34887 0.0178 0.51081 3e-3 1.0432-0.0943 5.1596-0.7876 10.839-1.8256 0.35618-0.0651 0.65737-0.12034 0.66931-0.12279 0.02143-4e-3 0.02172-4e-3 0.02172 0.0357 0 0.0221-0.0016 0.0401-0.0034 0.0401-0.0019 0-0.08346 0.0141-0.18126 0.0313-0.1244 0.0219-0.1892 0.037-0.21572 0.0504-0.14225 0.0717-0.34908 0.11833-0.70524 0.15912-0.30519 0.0349-0.39209 0.0496-0.9398 0.15826-1.322 0.26232-1.4791 0.28924-2.6022 0.44617-0.80913 0.11306-0.98643 0.14165-1.8599 0.29996-0.55789 0.10112-0.92049 0.16524-1.1609 0.20531-0.10642 0.0177-0.51511 0.0871-0.90821 0.15424-0.3931 0.0671-0.85688 0.14338-1.0306 0.16952-0.59933 0.0901-0.68708 0.1055-1.0211 0.17867-0.55691 0.12198-0.66335 0.13905-1.1759 0.18863-0.31919 0.0309-0.32843 0.0313-0.3617 0.0165z"/>
     <path d="m54.175 203.87c-0.55813-0.098-1.339-0.2828-2.2175-0.52492-0.91763-0.25289-2.4801-0.71819-3.7806-1.1258-2.7438-0.86007-4.4811-1.5804-5.6922-2.3602-0.12936-0.0833-0.15694-0.10977-0.04623-0.0444 0.11985 0.0708 0.16275 0.0891 0.16275 0.0696 0-6e-3 -0.0054-0.0159-0.01204-0.0214-0.0066-5e-3 -0.01048-0.0115-0.0086-0.0134 0.0019-2e-3 0.04197 0.021 0.08904 0.0509 0.44507 0.2827 1.4916 0.8045 2.2591 1.1264 0.63082 0.2646 0.94133 0.37196 2.1583 0.74627 0.81232 0.24985 0.99994 0.30983 1.3149 0.42038 0.18419 0.0646 0.69764 0.22007 2.0731 0.62756 1.0056 0.29791 1.8514 0.54696 1.8796 0.55345 0.22375 0.0515 0.4173 0.10566 0.73052 0.2045 0.30464 0.0961 0.6301 0.18167 0.94375 0.24802 0.0847 0.0179 0.1771 0.0375 0.20534 0.0435 0.06702 0.0142 0.02228 0.014-0.05923-2.7e-4z"/>
     <path d="m55.052 203.97c-0.11874-7e-3 -0.44069-0.0388-0.44555-0.0434-0.0019-2e-3 0.05057-3e-3 0.11639-3e-3 0.06583 0 0.1988-4e-3 0.2955-8e-3s0.33396-0.0133 0.52725-0.02c0.38672-0.0135 0.61231-0.0255 1.0346-0.0552 0.61505-0.0433 0.79055-0.0642 1.1248-0.13429 0.20867-0.0438 0.38309-0.0708 0.76271-0.11812 0.40275-0.0502 0.45584-0.059 0.74208-0.12232 0.24391-0.054 0.36273-0.0738 0.73475-0.12289 0.56064-0.0739 0.74474-0.0999 0.97929-0.13833 0.3037-0.0497 0.77036-0.13103 1.0432-0.18176 0.11552-0.0215 0.21236-0.0391 0.21521-0.0391 0.0029 0 0.0052 9e-3 0.0052 0.0197 0 0.0109-0.0021 0.0197-0.0047 0.0197s-0.18294 0.0319-0.4008 0.0708c-2.6852 0.47996-4.9309 0.80412-6.0468 0.87281-0.20396 0.0126-0.5109 0.014-0.68314 3e-3z"/>
     <path d="m62.187 204.37c0-0.0345 0.0024-0.04 0.01778-0.0436 0.0098-2e-3 0.33498-0.0627 0.72268-0.1344 1.4157-0.26168 3.032-0.56594 4.5667-0.85968 2.3666-0.45297 3.546-0.68057 3.546-0.68433 0-4e-3 -1.1099-0.64237-1.2964-0.74519-0.23535-0.12975-0.44002-0.22564-0.58075-0.27207-0.12612-0.0416-0.19226-0.0524-0.32234-0.0525-0.15785-1.3e-4 -0.17307 3e-3 -0.57652 0.1255-1.0272 0.31142-3.2528 0.80021-5.6823 1.2479-0.20198 0.0372-0.37366 0.0691-0.38152 0.0709-0.01138 3e-3 -0.01378-1e-3 -0.01185-0.0173 0.0024-0.0205 0.0038-0.0208 0.26306-0.0735 0.73738-0.14975 3.5233-0.7613 4.5529-0.99944 0.39173-0.0906 1.7638-0.45229 1.9191-0.50588 0.0636-0.022 0.0958-0.0287 0.1382-0.029 0.07073-5.3e-4 0.09131 0.0104 0.18016 0.0948 0.05421 0.0515 0.09872 0.0833 0.20139 0.14408 0.61339 0.36301 1.4649 0.8355 1.7883 0.99235 0.08519 0.0413 0.11393 0.0594 0.13326 0.0838 0.02666 0.0337 0.02582 0.0364-0.01902 0.0625-0.02984 0.0173-0.24265 0.0389-0.38365 0.0389-0.0867 0-0.19004 6e-3 -0.27358 0.0153-0.2343 0.0268-0.56567 0.0795-0.63179 0.10048-0.04059 0.0129-0.0886 0.0213-0.13426 0.0236-0.03909 2e-3 -0.19368 0.0251-0.34354 0.0514-0.27022 0.0475-0.27287 0.0482-0.3212 0.0791-0.09155 0.0586-0.17527 0.0776-0.34312 0.0776-0.04635 0-0.12107 4e-3 -0.16606 8e-3 -0.12787 0.0129-0.56586 0.10673-0.87944 0.18844-0.06515 0.017-0.21264 0.0474-0.32774 0.0676-0.11511 0.0202-0.41363 0.0794-0.66339 0.13159-0.83287 0.17399-1.1301 0.23079-1.5045 0.28746-0.30444 0.0461-0.59748 0.0949-0.87268 0.14526-0.9575 0.17536-1.3962 0.2549-1.8085 0.3279-0.25845 0.0458-0.4779 0.0851-0.48767 0.0874-0.01662 4e-3 -0.01778 2e-3 -0.01778-0.0353z"/>
    </g>
    <path d="m49.279 211.97c-0.06067-0.0264-0.07447-0.0439-0.14244-0.17972-0.07524-0.1504-0.16927-0.23202-0.46761-0.40589-0.13358-0.0779-0.42412-0.24759-0.64565-0.37719-0.4925-0.28812-0.86877-0.49751-2.5588-1.4239-3.3372-1.8293-4.2431-2.3301-5.9745-3.3029-0.98229-0.5519-1.1009-0.62178-1.4334-0.8446-0.21266-0.14251-0.38125-0.28629-0.36028-0.30726 0.0049-5e-3 0.42739 0.24602 0.93882 0.55764 2.216 1.3502 2.5593 1.5342 7.0347 3.7706 3.1787 1.5884 2.9934 1.5035 3.3683 1.5435 0.26516 0.0283 0.43362 4e-3 1.5281-0.2161 2.2825-0.45992 6.4115-1.2711 10.046-1.9736 3.5389-0.68408 4.2754-0.826 5.2913-1.0196 0.59508-0.11339 1.0945-0.20904 1.1099-0.21256 0.02619-6e-3 0.02765 0.0183 0.02371 0.39767l-0.0042 0.40406-1.003 0.20109c-1.3044 0.26153-3.3849 0.69506-5.6309 1.1734-1.2571 0.26772-1.4727 0.31076-2.1481 0.42876-0.58003 0.10135-0.70142 0.12762-1.2004 0.25974-0.47644 0.12614-0.77767 0.18893-3.8224 0.79668-3.4375 0.68615-3.775 0.75213-3.8431 0.75141-0.03206-2.7e-4 -0.07962-0.01-0.10568-0.0213z" stroke-width=".02179"/>
    <path d="m67.041 207.97c0-0.22152 0.0043-0.40277 0.0096-0.40277 0.02442 0 2.2125-0.42294 2.6627-0.51468 0.27832-0.0567 0.54357-0.11716 0.58945-0.13432 0.18889-0.0707 0.26532-0.1649 0.33009-0.40693 0.0573-0.21411 0.07297-0.22542 0.19605-0.14144 0.19428 0.13255 0.71047 0.51609 0.75642 0.56204 0.17673 0.17672 0.14772 0.41258-0.06148 0.5-0.07645 0.0319-0.15152 0.0483-1.5608 0.34093-0.66458 0.13798-1.386 0.28986-1.6032 0.33752-0.33947 0.0745-1.2762 0.26242-1.3081 0.26242-0.0059 0-0.0108-0.18124-0.0108-0.40277z" stroke-width=".02179"/>
   </g>
   <g fill="#95f" stroke-linecap="round" stroke-linejoin="round">
    <path d="m62.213 212.29c-0.22114-0.0344-0.83431-0.16227-1.3626-0.28418s-1.3827-0.31307-1.8987-0.42479c-0.516-0.11172-1.0961-0.23854-1.2892-0.28183l-0.35104-0.0787 0.59675-0.18876c0.32822-0.10383 0.88826-0.25003 1.2445-0.3249 2.0439-0.42951 3.5548-0.73172 4.2441-0.84889 0.83626-0.14216 1.9676-0.42354 4.2868-1.0662 0.79746-0.22097 1.4569-0.39485 1.4653-0.38639 0.0085 8e-3 -0.15448 0.10723-0.3621 0.21948-0.20761 0.11226-0.57893 0.33441-0.82515 0.49368-0.24622 0.15927-0.66538 0.4086-0.93147 0.55407-0.26609 0.14547-0.78536 0.45448-1.1539 0.68667-0.36857 0.2322-0.87371 0.54703-1.1225 0.69963s-0.61069 0.40953-0.80415 0.57095c-0.48549 0.40508-1.0275 0.73412-1.1987 0.72772-0.07474-3e-3 -0.31683-0.0332-0.53797-0.0676z" stroke-width=".06163"/>
    <path d="m71.438 205.98c-0.40517-0.24005-0.85975-0.50198-1.0102-0.58207-0.35474-0.18887-0.40154-0.28726-0.28424-0.59759 0.20345-0.53824 0.58155-1.0332 0.9112-1.1928 0.18824-0.0911 0.22629-0.0932 0.94884-0.0522 0.70373 0.04 0.83088 0.062 1.9527 0.33835 1.2473 0.30729 1.5479 0.40221 1.4773 0.46659-0.11694 0.1067-1.1403 0.76266-2.0369 1.3056-0.55693 0.33728-1.0597 0.64412-1.1173 0.68187-0.10047 0.0658-0.13478 0.0508-0.84142-0.36783z" stroke-width=".06163"/>
    <path d="m62.002 212.71c-0.12043-0.0118-0.41684-0.0678-3.9803-0.75129-2.607-0.50002-2.6509-0.50872-2.7207-0.53873-0.10255-0.0441-0.07505-0.0626 0.12519-0.0841 0.11893-0.0128 0.28299-0.0166 0.462-0.0106 0.37486 0.0125 0.54812 0.0412 1.2563 0.20763 0.39404 0.0926 0.96337 0.21559 2.0144 0.43512 0.8679 0.18128 2.9937 0.6431 3.0604 0.66486 0.02831 9e-3 0.0626 0.0279 0.07619 0.0415 0.05094 0.0509-0.03376 0.0612-0.29352 0.0356z" stroke-width=".02179"/>
    <path d="m62.726 212.38c-0.41438-0.0446-0.81831-0.11246-1.3248-0.2227-0.21194-0.0461-0.38623-0.0863-0.81542-0.18811-0.60547-0.14356-0.78117-0.18304-1.1491-0.25817-0.41149-0.084-0.6869-0.14378-1.2853-0.27889-0.22587-0.051-0.50485-0.11389-0.61995-0.13977-0.25438-0.0572-0.26062-0.0589-0.26062-0.0705 0-8e-3 0.01561-0.0139 0.18164-0.0693 0.0999-0.0333 0.25805-0.0867 0.35144-0.1185 0.37584-0.12816 0.56884-0.18274 0.86675-0.24513 0.24232-0.0507 0.46401-0.0977 0.83121-0.17614 0.741-0.15824 1.0038-0.21278 1.5301-0.31751 0.18135-0.0361 0.53851-0.10824 0.7937-0.16034 1.0385-0.21202 1.2075-0.24446 1.4986-0.28773 0.31032-0.0461 0.4263-0.0639 0.49102-0.0751 0.03767-7e-3 0.07143-0.0117 0.07502-0.0115 0.01918 1e-3 -0.26361 0.056-0.49496 0.0963-0.73197 0.12749-1.9733 0.37461-3.8402 0.76448-0.21827 0.0456-0.44127 0.0927-0.49557 0.10475-0.2892 0.0641-0.69301 0.16827-0.98559 0.25433-0.10468 0.0308-0.75602 0.2355-0.7634 0.23993-0.0054 3e-3 0.40604 0.0949 1.2712 0.28324 0.97169 0.21153 1.3553 0.29685 2.147 0.47749 0.84618 0.19306 1.2937 0.28503 1.6043 0.32965 0.20813 0.0299 0.36333 0.0477 0.41715 0.0477 0.07721 7e-5 0.1841-0.0397 0.34769-0.12947 0.25338-0.139 0.53363-0.33481 0.85278-0.59584 0.04269-0.0349 0.10721-0.0861 0.14338-0.11372 0.06583-0.0503 0.08909-0.064 0.04649-0.0274-0.01246 0.0107-0.0573 0.0516-0.09966 0.0908-0.14816 0.1373-0.2635 0.23342-0.40475 0.33729-0.09212 0.0677-0.26711 0.18403-0.36723 0.24403-0.16726 0.10024-0.36439 0.20594-0.40262 0.21588-0.02789 7e-3 -0.07183 7e-3 -0.14034-1.7e-4z" stroke-width=".0054474"/>
    <path d="m64.09 211.52c5.29e-4 -1e-3 0.07119-0.0543 0.10496-0.0792 0.11838-0.0873 0.24245-0.17431 0.36329-0.25479 0.09081-0.0605 0.13045-0.0858 0.2362-0.15087 0.25159-0.1548 0.67277-0.41733 1.0371-0.64645 0.10911-0.0686 0.17634-0.11051 0.25941-0.16165l0.03204-0.0197 0.02299-1e-5c0.01265 0 0.02299 1.9e-4 0.02299 5.3e-4 0 2.4e-4 -0.0089 6e-3 -0.0199 0.0131-0.01095 7e-3 -0.04966 0.0317-0.08604 0.055-0.37973 0.24311-0.42067 0.26919-0.55449 0.35311-0.15153 0.095-0.24124 0.14989-0.49661 0.30364-0.26681 0.16064-0.33883 0.20425-0.43873 0.26563-0.10198 0.0627-0.24414 0.15194-0.2806 0.17622-0.04001 0.0266-0.07852 0.056-0.12114 0.0924-0.01368 0.0117-0.01823 0.0148-0.0117 8e-3 0.0041-4e-3 0.0034-6e-3 -0.0013-3e-3 -0.0058 3e-3 -0.02646 0.018-0.04749 0.0338-0.01929 0.0145-0.02238 0.0166-0.02101 0.0144z" stroke-width=".0014258"/>
    <g stroke-width=".0040327">
     <path d="m66.166 210.19c0.27161-0.16655 0.66374-0.39657 0.8739-0.51263 0.29758-0.16433 0.62476-0.35933 0.94421-0.56275 0.30269-0.19276 0.55552-0.34336 0.83167-0.4954 0.21783-0.11994 0.3429-0.19717 0.33406-0.20628-0.0097-0.01-0.53226 0.12772-1.5443 0.40685-1.6401 0.45235-2.5021 0.67774-3.239 0.84687-0.2034 0.0467-0.25541 0.0581-0.25926 0.0568-0.0019-5.3e-4 0.0044-3e-3 0.01394-5e-3 0.09066-0.0199 0.46423-0.11126 0.69402-0.16977 0.75127-0.19127 1.6284-0.42843 3.1571-0.85362 0.27091-0.0753 0.52414-0.14575 0.56273-0.15644 0.58422-0.1619 0.54107-0.15141 0.63745-0.15496l0.04987-2e-3 0.0035 0.0153c0.0019 8e-3 0.0032 0.0156 0.0028 0.016-5.29e-4 5.3e-4 -0.01855 0.0119-0.04025 0.0254-0.04207 0.0263-0.09098 0.0534-0.29963 0.16588-0.4182 0.22541-0.50946 0.27972-0.93983 0.55934-0.47356 0.30769-0.55296 0.35506-0.81998 0.48922-0.1592 0.08-0.2569 0.13067-0.32412 0.16814-0.0858 0.0478-0.27912 0.16661-0.51823 0.31844l-0.11446 0.0727h-0.04265z"/>
     <path d="m72.165 206.43c-0.02945-8e-3 -0.0693-0.0269-0.11968-0.0559-0.02622-0.0151-0.22913-0.1356-0.71432-0.4242-0.74405-0.44258-0.75841-0.45079-0.90914-0.51974-0.16022-0.0733-0.21917-0.10918-0.27564-0.16778-0.06052-0.0628-0.08868-0.12707-0.09187-0.20968-0.0026-0.0686 0.0072-0.11561 0.04565-0.21824 0.11919-0.31789 0.2838-0.61103 0.47353-0.84327l0.02687-0.0329h0.01778c0.02109 0 0.0241-6e-3 -0.02588 0.0549-0.16883 0.20705-0.32666 0.47971-0.43325 0.74844-0.02461 0.062-0.04914 0.13397-0.05852 0.17158-0.01474 0.0591-0.01897 0.12334-0.01069 0.16243 0.02093 0.0988 0.09962 0.17631 0.28101 0.27694 0.02885 0.016 0.09126 0.0506 0.13869 0.0768 0.2015 0.11139 0.51696 0.29404 0.9866 0.57125 0.34696 0.2048 0.43285 0.25364 0.53496 0.30421 0.03698 0.0183 0.08171 0.0382 0.09939 0.0442 0.02964 0.0101 0.03479 0.011 0.06577 0.0111 0.04168 1.5e-4 0.04246-1.9e-4 0.13218-0.0563 0.1108-0.0692 0.40306-0.24753 0.94651-0.57738 0.53627-0.32549 0.89877-0.55023 1.314-0.81466 0.4694-0.29892 0.82933-0.54051 0.85068-0.57099 0.01-0.0143 4e-3 -0.0301-0.01725-0.0453-0.08139-0.0584-0.36397-0.14254-1.1155-0.33196l-0.09793-0.0247 0.042-2.7e-4 0.042-2.6e-4 0.12024 0.028c0.32954 0.0767 0.57828 0.13787 0.65764 0.16186 0.0652 0.0197 0.1292 0.0431 0.28403 0.10393 0.07074 0.0278 0.13863 0.0543 0.15086 0.0588l0.02223 8e-3 -0.04742 0.055-0.37418 0.24904c-0.40568 0.27001-0.50096 0.33289-0.73631 0.48595-0.17053 0.1109-0.22947 0.14712-0.30584 0.18792-0.02814 0.015-0.44119 0.26468-0.9179 0.55477-0.68533 0.41705-0.86889 0.52998-0.87698 0.53955-0.02582 0.0305-0.0422 0.0403-0.07016 0.0418-0.01095 5.3e-4 -0.02545-7.9e-4 -0.03421-3e-3z"/>
     <path d="m70.604 203.95c0.0024-7e-3 0.07667-0.0891 0.12371-0.13709 0.10189-0.10403 0.18822-0.17001 0.29115-0.22248 0.12744-0.065 0.23834-0.0926 0.38422-0.0957 0.07987-2e-3 0.1068 1.1e-4 0.20453 0.0137 0.1535 0.0214 0.25018 0.0267 0.58319 0.0322 0.21904 4e-3 0.29122 8e-3 0.43849 0.0266 0.25076 0.0316 0.45494 0.0768 0.96321 0.21314 0.12236 0.0328 0.34934 0.0896 0.50719 0.12695 0.06511 0.0154 0.13418 0.0318 0.15347 0.0364l0.03508 8e-3 -0.0824 5.2e-4 -0.20581-0.051c-0.68251-0.16901-0.96716-0.23351-1.2058-0.27323-0.25546-0.0425-0.43005-0.0572-1.0974-0.0923-0.15327-8e-3 -0.34314-0.0102-0.40049-4e-3 -0.0918 9e-3 -0.14392 0.0252-0.24309 0.0745-0.04672 0.0233-0.05728 0.0293-0.1004 0.058-0.09159 0.0608-0.20156 0.15899-0.28717 0.25643l-0.02701 0.0307-0.01778 5.3e-4c-0.0098 2.6e-4 -0.01736-7.9e-4 -0.01685-2e-3z"/>
    </g>
    <path d="m62.987 218.63c-0.02729-0.0146-0.07335-0.0472-0.10237-0.0724-0.08884-0.0772-0.25268-0.16483-0.40118-0.21449-0.08057-0.0269-0.58584-0.13339-1.1749-0.24753-2.5289-0.49003-3.8944-0.76356-4.7984-0.96123-0.30624-0.067-0.55421-0.12434-0.55103-0.12752 0.01336-0.0134 0.38411 0.0444 1.5791 0.24618 2.345 0.39587 2.3798 0.40114 3.3238 0.50362 0.21373 0.0232 0.57092 0.072 0.79375 0.10842 0.61966 0.10133 1.2636 0.15941 1.6132 0.14553 0.13364-5e-3 0.16299-0.0126 0.27285-0.0677 0.0677-0.034 0.51005-0.33797 0.983-0.67557 1.4502-1.0352 1.7438-1.242 4.5227-3.1847 2.7905-1.9509 5.5131-3.8831 5.6451-4.0064 0.11694-0.10922 0.288-0.31913 0.31739-0.38945 0.03948-0.0945 0.0094-0.15776-0.15529-0.32658-0.10331-0.1059-0.13254-0.14469-0.10901-0.14469 0.05309 0 0.83697 0.31131 0.90644 0.35999 0.08825 0.0618 0.13023 0.14262 0.1176 0.22628-0.015 0.0994-0.05948 0.15724-0.24688 0.32131-0.33441 0.29277-0.71377 0.58283-1.9662 1.5033-0.69661 0.51198-1.3219 0.97792-1.3896 1.0354-0.24148 0.20522-0.41316 0.32922-1.4907 1.0767-2.9291 2.0318-3.4087 2.3525-4.6798 3.129-1.0618 0.6486-1.0797 0.6603-1.2032 0.78598-0.1614 0.16428-0.25274 0.21998-0.83208 0.50741-0.33452 0.16597-0.54111 0.2792-0.63093 0.3458-0.21393 0.15862-0.25185 0.17223-0.34343 0.12329z" stroke-width=".022812"/>
    <path d="m61.753 218.75c-0.22717-0.0447-1.4487-0.27564-1.7901-0.33843-0.57093-0.105-0.69474-0.12562-1.0439-0.17379-0.08186-0.0113-0.23068-0.0318-0.33073-0.0456-0.42252-0.0583-0.6235-0.0942-1.2547-0.22378-1.1725-0.24077-3.704-0.80346-6.5505-1.456l-0.29352-0.0673-0.0011-0.19722c-5.29e-4 -0.10847-5e-5 -0.19722 0.0013-0.19722 0.0013 0 0.08824 0.0231 0.19331 0.0514 0.50968 0.13701 0.8896 0.23288 1.1501 0.29023 0.05684 0.0125 0.55263 0.11273 1.1017 0.22272 1.1365 0.22764 1.408 0.28341 2.7368 0.56224 0.74994 0.15736 1.0557 0.22119 1.941 0.40514 0.17963 0.0373 0.48844 0.10152 0.68626 0.14265 0.96464 0.20058 2.3227 0.48052 2.5652 0.52876 0.15552 0.0309 0.4612 0.0896 0.74724 0.14333l0.21601 0.0406v0.16248c0 0.15214-5.3e-4 0.16245-0.0072 0.16208-4e-3 -2.2e-4 -0.03421-6e-3 -0.06718-0.0122z" stroke-width=".0057031"/>
    <path d="m62.402 218.86c-0.06295-9e-3 -0.21371-0.0343-0.33503-0.0573-0.12132-0.0229-0.22372-0.0417-0.22757-0.0417-0.0038 0-7e-3 -0.071-7e-3 -0.15785 0-0.1185 0.0037-0.15785 0.01463-0.15784 8e-3 1e-5 0.06987 0.0103 0.13739 0.0229 0.06753 0.0126 0.2006 0.0308 0.29571 0.0406 0.22986 0.0235 0.28858 0.0493 0.37238 0.16337 0.05607 0.0763 0.04247 0.15839-0.03139 0.18924-0.04647 0.0194-0.06694 0.0193-0.21912-2e-3z" stroke-width=".016131"/>
   </g>
   <path d="m49.186 216.15c-1.2182-0.2807-1.6904-0.38728-2.666-0.60179-1.1031-0.24255-1.6293-0.38254-3.8645-1.0283-0.88796-0.25652-1.4521-0.42518-1.5903-0.47547-0.42455-0.1545-0.73993-0.43527-1.0892-0.96966-0.34371-0.52589-0.50069-0.97415-0.53614-1.531-0.04933-0.77485 0.23973-1.6395 0.75405-2.2555 0.13634-0.1633 0.24508-0.27463 0.46203-0.47304 0.23166-0.21186 0.29729-0.26283 0.42369-0.32909 0.15645-0.082 0.13308-0.0293-0.06324 0.14251-0.31103 0.27228-0.50497 0.56046-0.8114 1.2057l-0.10166 0.21404-0.01535 0.19521c-0.05821 0.74109-0.05434 1.29 0.01299 1.8381 0.06041 0.49189 0.16813 1.0875 0.21482 1.1879 0.05228 0.11236 0.1376 0.18627 0.27344 0.23688 0.09851 0.0367 0.35742 0.10023 2.6041 0.63893 1.1158 0.26754 2.2497 0.5395 2.5198 0.60436 0.5224 0.12544 1.4059 0.35344 2.1457 0.55372 0.4634 0.12546 0.60898 0.16736 0.87113 0.2507 0.29635 0.0942 1.2628 0.3734 1.7022 0.4917l0.04595 0.0124v0.19248c0 0.14678-0.0035 0.19223-0.01461 0.19138-8e-3 -5.3e-4 -0.5829-0.13204-1.2775-0.29207z" fill="#ccc" stroke-linecap="round" stroke-linejoin="round" stroke-width=".016131"/>
   <path transform="matrix(.26458 0 0 .26458 -91.001 61.253)" d="m531.5 585.74c-1.5812-0.3701-5.6594-1.299-9.0625-2.0643-6.5207-1.4663-9.4503-2.2283-17.188-4.4705-6.9709-2.0201-7.1066-2.0743-8.4816-3.3828-0.76838-0.73122-1.9729-2.4294-2.5892-3.6504-0.90895-1.8006-1.3177-4.4427-0.99696-6.4444 0.39989-2.4959 1.402-4.655 3.0195-6.5058 0.69494-0.79517 2.5995-2.5332 2.7759-2.5332 0.0615 0-0.19179 0.32795-0.56289 0.72879-0.87866 0.94905-1.4145 1.7706-2.2721 3.4837l-0.70091 1.4-0.12595 2.225c-0.081 1.4312-0.084 2.8058-9e-3 3.853 0.19716 2.7336 0.72216 5.862 1.0738 6.3987 0.43784 0.66824-0.17401 0.49577 12.806 3.6098 10.203 2.4476 14.82 3.6412 20.188 5.2185 2.2 0.64648 4.2953 1.2495 4.6562 1.3401l0.65625 0.16466v0.66387c0 0.45463-0.0493 0.65981-0.15625 0.65098-0.0859-7e-3 -1.45-0.3157-3.0312-0.6858z" fill="#95f" stroke-linecap="round" stroke-linejoin="round" stroke-width=".17244"/>
  </g>
  <g>
   <path d="m108.33 102.6c-1.2237-0.48085-2.6108 0.13499-3.0978 1.3754l-1.6817 4.2813c-0.5233 1.3321 0.11814 2.8305 1.4325 3.3465l9.0451 3.5529 0.66985 2.2369 3.2938 1.2939 2.0132-1.1829 46.121 18.118c0.38446 0.15095 0.82022-0.0424 0.97331-0.43216l2.9574-7.5272c0.15306-0.38968-0.0345-0.82799-0.41897-0.97908l-46.121-18.118-2.0132 1.1829-3.2938-1.2939-0.66984-2.2369z" fill="#de87cd"/>
   <path d="m112.94 196.88c-1.3036-0.17095-2.5008 0.76176-2.6738 2.0831l-0.59754 4.5607c-0.18596 1.4191 0.7985 2.7181 2.1986 2.9013l9.6355 1.2623 1.1904 2.0088 3.5089 0.45973 1.6678-1.6343 40.93 4.9825c0.40954 0.0536 0.78567-0.23931 0.84006-0.65451l1.0512-8.0188c0.0544-0.41511-0.23352-0.79512-0.64311-0.84885l-40.93-4.9825-1.6678 1.6343-3.5089-0.45975-1.1904-2.0088z" fill="#6f916f"/>
   <path d="m45.894 98.982c-0.29603 0.024-0.51003 0.34075-0.48006 0.71081l0.32329 3.9913c-2e-3 -0.027-6e-3 -0.0578-0.0113-0.0898l0.0153 0.18801s6.9e-4 -0.0282-1e-3 -0.0708l0.0764 0.94311c0.0299 0.37004 0.29225 0.64876 0.58825 0.62478l23.03-1.6237c0.29602-0.024 0.51-0.34128 0.48003-0.71132l-0.40192-4.9617c-0.02991-0.37006-0.29216-0.64828-0.5882-0.62429zm-0.16819 4.6123-0.23398-2.8885c-3e-3 0.22776-0.12271 0.59237-1.0131-0.0585-1.2378 0.10026-0.99421 3.3102 0.26051 3.2161 0.75174-0.89278 0.93992-0.53421 0.98659-0.26916zm-0.23398-2.8885c3.7e-4 -0.0778-0.0113-0.13958-0.0113-0.13958z" fill="#55f"/>
   <path d="m137.58 201.78c-0.29515-0.0332-0.56587 0.23671-0.60738 0.60565l-0.44751 3.9793c3e-3 -0.0269 6e-3 -0.0579 6e-3 -0.0903l-0.0211 0.18745s6e-3 -0.0275 0.0126-0.0697l-0.10573 0.94027c-0.0415 0.36892 0.16251 0.69274 0.45763 0.72592l22.915 2.8195c0.29513 0.0332 0.56594-0.23722 0.60744-0.60615l0.5563-4.9468c0.0415-0.36892-0.16251-0.69226-0.45767-0.72543zm-1.0489 4.4946 0.32385-2.8798c-0.0466 0.22296-0.23394 0.55788-0.98313-0.25156-1.234-0.13878-1.6101 3.0583-0.3606 3.2065 0.90889-0.73218 1.0249-0.34419 1.0199-0.0753zm0.32385-2.8798c0.0153-0.0763 0.0157-0.13916 0.0157-0.13916z" fill="#aa87de"/>
  </g>
  <g transform="translate(-17.462 -23.812)">
   <path d="m-48.427 141.33c-1.1994 0.53868-1.7288 1.961-1.1825 3.1764l1.8851 4.1957c0.5866 1.3054 2.1063 1.8945 3.3942 1.3156l5.5261-2.4828 2.0676 1.085 3.228-1.4504 0.56182-2.2664 41.827-18.586c0.37676-0.16932 0.54309-0.61614 0.37152-0.99803l-3.314-7.3772c-0.17164-0.38188-0.61615-0.55422-0.99293-0.38497l-41.827 18.586-0.56183 2.2664-3.228 1.4504-2.0676-1.085z" fill="#80ffe6"/>
   <path d="m-44.597 149.87c-1.1993 0.53867-1.7288 1.961-1.1825 3.1764l1.8851 4.1957c0.58661 1.3054 2.1063 1.8945 3.3942 1.3156l5.5261-2.4828 2.0676 1.085 3.228-1.4504 0.56184-2.2664 40.658-17.853c0.37676-0.16932 0.54309-0.61614 0.37152-0.99804l-3.314-7.3772c-0.17164-0.38187-0.61614-0.55422-0.99293-0.38497l-40.658 17.853-0.56183 2.2664-3.228 1.4504-2.0676-1.085z" fill="#b3b3b3"/>
   <path d="m-30.024 145.14c-0.27092 0.12173-0.36649 0.49187-0.21433 0.83052l1.6411 3.6527c-0.01134-0.0246-0.02468-0.0526-0.04067-0.0808l0.07735 0.17203s-0.0088-0.0268-0.02495-0.0663l0.38778 0.86309c0.1521 0.33866 0.49261 0.51344 0.7635 0.39174l25.071-11.265c0.27091-0.12174 0.36628-0.49235 0.21413-0.83099l-2.0402-4.5407c-0.1521-0.33868-0.49237-0.51302-0.76329-0.39128zm1.386 4.4024-1.1877-2.6434c0.07328 0.21567 0.08273 0.59927-0.97421 0.28418-1.1327 0.50894 0.17161 3.452 1.3224 2.9432 0.40939-1.093 0.70677-0.8181 0.83951-0.58398zm-1.1877-2.6434c-0.02569-0.0734-0.05742-0.12772-0.05742-0.12772z" fill="#afa"/>
   <path d="m-50.965 132.33c-0.71344 0.32049-1.4301 0.64256-2.1507 0.96685-2.4259 1.1419-3.8011 3.7721-2.5807 6.4883 4.3094 9.6587 6.3715 14.215 10.716 23.885 1.0081 2.2442 3.6448 3.246 5.8888 2.2376l7.0537-3.1688 2.0774 1.0552 3.3101-1.4832 0.57712-2.2524 47.76-21.459c0.4501-0.20223 0.65105-0.73108 0.44882-1.1812l-1.681-3.7413-55.545 24.956c-2.7425 1.2322-7.335 2.5872-8.5513-0.16252l-6.1868-13.987c-1.2162-2.7497 3.3912-3.7672 6.1337-4.9995l1.0157-0.45634 2.0855 1.077 3.2718-1.47 0.57965-2.2744 48.592-21.833-3.418-7.6062c-0.22244-0.49515-0.80424-0.7162-1.2994-0.49371-17.729 8.0401-31.106 13.882-47.748 21.285l-0.57237 2.2326-3.3101 1.4832-2.0826-1.0579c-2.4746 1.1047-1.8349 0.81305-4.3864 1.96z" fill="#3771c8"/>
  </g>
  <g transform="matrix(.68644 .30153 -.30153 .68644 -105.02 94.773)">
   <path d="m124.82 45.015c-13.748 0.0025-24.893 3.1162-24.892 6.9546 0.0043 0.03904 8e-3 0.07821 0.01396 0.11729l-0.01388-6e-6 0.01459 78.531c2.86e-4 2.4602 1.9951 4.4543 4.4553 4.4537l72.387-0.0134c0.49346-1.1e-4 0.89341-0.4002 0.89333-0.89366l-7.6e-4 -4.1016-68.955 0.0128c-3.0067 5.6e-4 -5.4275-2.4194-5.4281-5.4261l-0.0105-56.405c-5.7e-4 -3.0067 2.4194-5.4275 5.426-5.4281l6.8688-0.0013 1.4612 1.8368 3.5869-6.66e-4 1.4606-1.8374 55.578-0.01032-2e-3 -9.7482c-7e-5 -0.54284-0.44023-0.98282-0.98307-0.9827l-23.195 0.0043c-0.0628-0.10033-0.24292-0.24064-0.56387-0.43501-1.2659-0.76662-4.7214-2.3741-6.6426-3.2301-0.81917-0.36497-1.3586-0.59262-1.7054-0.67613-4.7084-1.7156-12.01-2.7212-19.753-2.7207z" fill="#fc0"/>
   <g transform="matrix(.75403 .0060395 -.0060395 .75403 63.356 -51.959)">
    <circle cx="142.21" cy="140.73" r="2.9766"/>
    <path x="135.96275" y="143.90025" width="12.501562" height="5.8539062" d="m142.2 143.9a6.0641 6.0641 43.047 0 1 6.2673 5.8539h-12.502a6.0471 6.0471 136.8 0 1 6.2342-5.8539z"/>
    <g transform="matrix(1.8674 0 0 1.8674 -129.3 -88.867)">
     <circle cx="146.96" cy="126.59" r=".97168" fill="none" stroke="#0f0" stroke-width=".175"/>
     <g transform="translate(.06615 -.013882)" fill="#0f0">
      <rect transform="scale(1,-1)" x="146.33" y="-126.69" width="1.1241" height=".175" ry="0"/>
      <rect transform="matrix(0,1,1,0,0,0)" x="126.04" y="146.81" width="1.1241" height=".175" ry="0"/>
     </g>
    </g>
   </g>
  </g>
  <g fill="none" stroke="#fff">
   <path d="m98.086 201.86-7.3981 0.052"/>
   <path d="m89.337 201.9-7.3769-0.56222"/>
   <path d="m80.418 201.38-6.4089-0.0499-0.98922-8e-3"/>
   <path d="m35.745 196.69-6.4089-0.0499-0.98922-8e-3"/>
   <path d="m38.742 191.49-5.0961-3.8866-0.78641-0.60015"/>
   <path d="m51.023 188.02 0.93077-6.3411 0.14396-0.97873"/>
   <path d="m67.704 188.17 2.3274-5.9716 0.35951-0.92163"/>
   <path d="m71.265 179.48 2.3274-5.9716 0.35951-0.92163"/>
   <path d="m74.693 170.82 2.826-5.7524 0.43647-0.88778"/>
   <path d="m78.773 162.85 3.597-5.3045 0.55546-0.81861"/>
   <path d="m84.26 155.27 3.597-5.3045 0.55546-0.81861"/>
   <path d="m89.441 147.83 3.597-5.3045 0.55546-0.81861"/>
   <path d="m94.786 140.2 4.1804-4.858 0.64548-0.74968"/>
   <path d="m100.9 133.44 4.1804-4.858 0.64549-0.74968"/>
   <path d="m52.573 178.4 0.67624-6.3733 0.10468-0.9837"/>
   <path d="m53.509 168.86 0.67624-6.3733 0.10468-0.9837"/>
   <path d="m54.601 159.52 0.40495-6.3962 0.0628-0.98725"/>
   <path d="m55.162 150.3 0.40495-6.3962 0.0628-0.98725"/>
   <path d="m55.926 141.38 0.13496-6.4076 0.02113-0.98902"/>
   <path d="m56.09 132.26 0.13496-6.4076 0.02113-0.98902"/>
   <path d="m56.301 123.67 0.51072-6.3887 0.07913-0.98608"/>
   <path d="m31.037 185.68-5.0961-3.8866-0.78641-0.60015"/>
   <path d="m23.213 179.71-4.7057-4.3512-0.72613-0.67183"/>
   <path d="m16.329 173.39-4.5137-4.55-0.69649-0.70252"/>
   <path d="m9.4187 166.47-3.857-5.1185-0.59511-0.79024"/>
   <path d="m3.5126 158.98-3.3811-5.4446-0.52163-0.84055"/>
   <path d="m-1.1195 151.2-3.6567-5.2635-0.56418-0.81261"/>
   <path d="m-6.3324 143.65-3.929-5.0634-0.60622-0.78175"/>
   <path d="m26.432 196.11-6.3141-1.0991-0.97454-0.16998"/>
   <path d="m16.95 194.04-6.1314-1.866-0.94633-0.28827"/>
   <path d="m98.899 196.69c1.2692 1.97 1.712 3.8098 1.3163 5.5174-0.32394 1.3981-1.21 2.7076-2.6649 3.9276l8.559-3.5646z"/>
   <path d="m10.825 186.57c-1.9501 1.2996-3.0906 2.8096-3.4094 4.5332-0.26113 1.4112 0.028513 2.9656 0.87547 4.6649l-6.4244-6.685z"/>
   <path d="m-7.0373 134.8c-2.3115-0.38584-4.1763-0.0644-5.5878 0.97492-1.1557 0.85085-2.0076 2.1829-2.5521 4.0018l-0.11406-9.2709z"/>
   <path d="m61.789 116.18c-1.7155-1.5965-3.4483-2.3568-5.199-2.2682-1.4333 0.0724-2.8785 0.71383-4.3358 1.931l5.0173-7.7968z"/>
   <path d="m109.68 130.32c-0.51549-2.286-1.5172-3.8915-3.0126-4.8061-1.2242-0.74898-2.7793-1.0349-4.6692-0.85225l8.5416-3.606z"/>
  </g>
 </g>
</svg>
