<?xml version="1.0" encoding="UTF-8"?>
<!-- Created with Inkscape (http://www.inkscape.org/) -->
<svg width="287.79mm" height="188.43mm" version="1.1" viewBox="0 0 287.79 188.43" xmlns="http://www.w3.org/2000/svg">
 <g transform="translate(-2.5091 -3.5127)">
  <rect x="2.5091" y="3.5127" width="287.79" height="188.43" rx="0" fill="#131415" stroke-width=".26458"/>
  <g transform="rotate(-15 73.538 78.09)">
   <path d="m21.136 69.206a2.5069 2.4125 0 0 0-2.5072 2.4128v4.5997a2.6926 2.5912 0 0 0 2.693 2.5911h9.2084l1.5181 1.8371h3.7273l1.5181-1.8371h48.827a0.78784 0.75816 0 0 0 0.78777-0.7581v-8.0874a0.78784 0.75816 0 0 0-0.78777-0.75809h-48.827l-1.5181 1.8371h-3.7273l-1.5181-1.8371z" fill="#80b3ff"/>
   <path d="m20.918 78.518a2.5691 2.4125 0 0 0-2.5694 2.4128v4.5997a2.7594 2.5912 0 0 0 2.7598 2.5911h9.4367l1.5557 1.8371h3.8197l1.5557-1.8371h50.038a0.80738 0.75816 0 0 0 0.8073-0.7581v-8.0874a0.80738 0.75816 0 0 0-0.8073-0.75809h-50.038l-1.5557 1.8371h-3.8197l-1.5557-1.8371z" fill="#cd87de"/>
   <path d="m20.909 88.048c-1.3148-1.8e-4 -2.3806 1.0802-2.3805 2.4128v4.5997c5.1e-5 1.4312 1.1449 2.5913 2.5569 2.5911h9.7186l1.4413 1.8371h3.5388l1.4413-1.8371h46.359c0.41306-4.3e-5 0.7479-0.33943 0.74793-0.7581v-8.0874c-3.9e-5 -0.41866-0.33488-0.75805-0.74793-0.75809h-46.359l-1.4413 1.8371h-3.5388l-1.4413-1.8371z" fill="#aade87"/>
   <path d="m52.79 80.301c-0.297 0-0.53588 0.29848-0.53588 0.66973v4.0044c-7e-5 -0.027-1e-3 -0.0581-4e-3 -0.0904v0.18862s3e-3 -0.028 4e-3 -0.0708v0.9462c0 0.37125 0.23888 0.67024 0.53588 0.67024h27.486c0.297 0 0.53589-0.29899 0.53589-0.67024v-4.978c0-0.37125-0.23889-0.66973-0.53589-0.66973zm-0.54002 4.5837v-2.898c-0.0215 0.22675-0.17015 0.58054-1.0051-0.14004-1.2418 0-1.2582 3.2191 0 3.2267 0.82136-0.82917 0.97997-0.45657 1.0051-0.18862zm0-2.898c7e-3 -0.07739 0-0.14004 0-0.14004z" fill="#9d93ac"/>
   <path d="m44.737 89.544c-0.297 0-0.53588 0.29848-0.53588 0.66973v4.0044c-7e-5 -0.027-1e-3 -0.0581-4e-3 -0.0904v0.18862s3e-3 -0.028 4e-3 -0.0708v0.9462c0 0.37125 0.23888 0.67024 0.53588 0.67024h23.582c0.297 0 0.53589-0.29899 0.53589-0.67024v-4.978c0-0.37125-0.23889-0.66973-0.53589-0.66973zm-0.54002 4.5837v-2.898c-0.0215 0.22675-0.17015 0.58054-1.0051-0.14004-1.2418 0-1.2582 3.2191 0 3.2267 0.82136-0.82917 0.97997-0.45657 1.0051-0.18862zm0-2.898c7e-3 -0.07739 0-0.14004 0-0.14004z" fill="#8080ff"/>
   <path d="m40.037 51.941c-13.748-1.3e-5 -24.893 3.1116-24.893 6.95 0.0035 0.03911 0.0081 0.07822 0.01394 0.11731h-0.01394v42.862c-1.72e-4 2.4602 1.9943 4.4547 4.4545 4.4545h72.387c0.49346-1e-5 0.89348-0.40003 0.89349-0.89349v-4.1016h-68.955c-3.0067 0-5.4271-2.4204-5.4271-5.4271v-20.736c0-3.0067 2.4204-5.4271 5.4271-5.4271h6.8688l1.4609 1.8371h3.5869l1.4609-1.8371h55.578v-9.7482c2e-5 -0.54284-0.44005-0.98291-0.98289-0.98288h-23.195c-0.0628-0.10034-0.24288-0.24069-0.56379-0.43512-1.2658-0.76686-4.7209-2.375-6.642-3.2313-0.81911-0.36512-1.3585-0.59288-1.7053-0.67644-4.7081-1.7165-12.009-2.7234-19.753-2.7244z" fill="#fc0"/>
  </g>
  <g>
   <path d="m71.131 152.76c-1.2662 0.35395-2.0017 1.6815-1.6426 2.9648l1.2389 4.4297c0.38552 1.3783 1.8005 2.1872 3.1603 1.8066l9.3587-2.6175 1.8829 1.381 3.4081-0.95319 0.89326-2.1574 47.721-13.347c0.39778-0.11129 0.62883-0.52832 0.51609-0.93153l-2.1783-7.7885c-0.1128-0.40319-0.52667-0.63983-0.92448-0.52863l-47.721 13.347-0.89325 2.1574-3.4081 0.95318-1.8829-1.381z" fill="#2a7fff"/>
   <path d="m152.94 149.36c-1.3094-0.11844-2.4682 0.86165-2.5879 2.1889l-0.41371 4.5811c-0.12868 1.4254 0.90715 2.6838 2.3135 2.8105l9.6785 0.87407 1.2702 1.9593 3.5245 0.31829 1.6007-1.7 32.133 3.1545c0.41138 0.0371 0.77539-0.27078 0.81307-0.68776l0.72741-8.0546c0.0376-0.41698-0.26533-0.78509-0.67671-0.8223l-32.133-3.1545-1.6007 1.7-3.5245-0.31829-1.2702-1.9593z" fill="#b3ff80"/>
   <path d="m103.23 145.59c-0.28604 0.08-0.43568 0.43177-0.33569 0.7893l1.0786 3.8564c-7e-3 -0.026-0.0166-0.0557-0.0282-0.0859l0.0508 0.18164s-5e-3 -0.0278-0.0152-0.0693l0.25485 0.91124c0.1 0.35753 0.41061 0.58111 0.69661 0.50113l29.776-8.328c0.28604-0.08 0.43555-0.43228 0.33556-0.78981l-1.3408-4.794c-0.1-0.35754-0.41044-0.58063-0.69647-0.50063zm0.71454 4.5598-0.78057-2.7909c0.0403 0.22419-8e-3 0.60493-1.0057 0.13585-1.196 0.33449-0.34466 3.439 0.8691 3.1074 0.56766-1.0198 0.82077-0.70365 0.91717-0.45232zm-0.78057-2.7909c-0.0141-0.0764-0.0378-0.13484-0.0378-0.13484z" fill="#acf"/>
   <path d="m147.1 179.1c0.27832 0.10372 0.60636-0.0925 0.736-0.44043l1.3983-3.7524c-0.01 0.0251-0.0194 0.0548-0.0278 0.086l0.0659-0.17674s-0.0123 0.0254-0.0285 0.065l0.33041-0.88664c0.12963-0.34789-7.3e-4 -0.68587-0.26811-0.81518l-22.324-10.797c-0.26738-0.12932-0.7362 0.44092-0.7362 0.44092l-1.7383 4.6646c-0.12963 0.34789-0.01 0.71098 0.2683 0.81469zm2.1066-4.1066-1.012 2.7156c0.0994-0.20496 0.36258-0.4843 0.89293 0.48219 1.1637 0.43364 2.3031-2.5771 1.1267-3.0236-1.0592 0.49018-1.0777 0.0856-1.0077-0.17428zm-1.012 2.7156c-0.0336 0.0701-0.0488 0.13125-0.0488 0.13125z" fill="#37c871"/>
   <path d="m17.33 157.39c-0.28978-0.0652-0.58829 0.17361-0.66971 0.53587l-0.87826 3.9069c0.0065-0.0262 0.01182-0.0569 0.01594-0.089l-0.04141 0.18402s0.0087-0.0268 0.01947-0.0683l-0.20753 0.92316c-0.08141 0.36222 0.09344 0.67948 0.37584 0.77146l23.578 7.68c0.28241 0.092 0.66984-0.53639 0.66984-0.53639l1.0918-4.8568c0.08141-0.36222-0.0862-0.7058-0.37596-0.77095zm-1.5322 4.3536 0.63561-2.8275c-0.07079 0.21651-0.29379 0.52887-0.94991-0.35707-1.2116-0.27237-1.9336 2.8648-0.70769 3.1481 0.98322-0.62885 1.0562-0.23049 1.022 0.0365zm0.63561-2.8275c0.02379-0.074 0.03061-0.13664 0.03061-0.13664z" fill="#ac939d"/>
   <path d="m214.88 18.357c-1.2261-0.47478-2.61 0.14798-3.0909 1.3908l-1.6604 4.2896c-0.51658 1.3347 0.13229 2.8298 1.4492 3.3393l9.0626 3.5079 0.68102 2.2335 3.3002 1.2774 2.0073-1.1929 46.211 17.887c0.38522 0.14907 0.81999-0.04657 0.97115-0.437l2.9193-7.5421c0.15109-0.39046-0.0387-0.82781-0.42385-0.97697l-46.211-17.887-2.0073 1.193-3.3002-1.2774-0.681-2.2335z" fill="#dbdbe3"/>
   <path d="m18.35 18.869c-1.3093-0.11962-2.4689 0.85942-2.5898 2.1865l-0.41784 4.5807c-0.12996 1.4253 0.90473 2.6846 2.3109 2.8126l6.0331 0.55033 1.2685 1.9604 3.5242 0.32147 1.6023-1.6986 40.402 3.8086c0.41136 0.03747 0.77564-0.2701 0.8137-0.68702l0.73467-8.0539c0.038-0.41694-0.26463-0.78534-0.67598-0.8229l-40.402-3.8086-1.6023 1.6986-3.5242-0.32147-1.2685-1.9604z" fill="#aa87de"/>
   <path d="m17.493 28.188c-1.3093-0.11962-2.4689 0.85943-2.5898 2.1865l-0.41784 4.5807c-0.12996 1.4253 0.90473 2.6846 2.3109 2.8126l6.0331 0.55033 1.2685 1.9604 3.5242 0.32147 1.6023-1.6986 50.668 4.9104c0.41136 0.03748 0.77564-0.27009 0.8137-0.68702l0.73467-8.0539c0.038-0.41693-0.26463-0.78532-0.67598-0.8229l-50.668-4.9104-1.6023 1.6986-3.5242-0.32147-1.2685-1.9604z" fill="#87deaa"/>
   <path d="m42.558 32.297c-0.29577-0.02698-0.56078 0.24856-0.5945 0.61828l-0.36377 3.9879c0.0025-0.02691 0.0043-0.05796 0.0042-0.09038l-0.01712 0.18784s0.0055-0.02761 0.01043-0.07014l-0.08595 0.94229c-0.03374 0.36972 0.17704 0.68916 0.47278 0.71615l27.372 2.4968c0.29577 0.02698 0.56083-0.24907 0.59456-0.61879l0.45221-4.9574c0.03374-0.36972-0.17705-0.68866-0.47283-0.71564zm-0.95418 4.5157 0.26326-2.886c-0.04205 0.22387-0.22219 0.56268-0.98822-0.23076-1.2367-0.11281-1.5454 3.0915-0.29311 3.2133 0.89329-0.75113 1.0174-0.36566 1.0181-0.09653zm0.26326-2.886c0.01401-0.07644 0.01268-0.13945 0.01268-0.13945z" fill="#ffe680"/>
   <path d="m20.562 9.774c-0.77886-0.0711-1.5614-0.14244-2.3483-0.2137-2.6741-0.19632-5.1634 1.4197-5.434 4.3852-0.98836 10.53-1.429 15.512-2.392 26.069-0.22366 2.45 1.5814 4.6174 4.0314 4.8407l7.7009 0.70246 1.2916 1.9392 3.6118 0.33348 1.6087-1.6788 52.143 4.7564c0.49141 0.04482 0.92612-0.31721 0.97096-0.80862l0.37259-4.0846-60.642-5.5317c-2.9942-0.27313-7.6681-1.3485-7.3697-4.3403l1.4479-14.517c0.33559-3.3646 4.8347-2.3232 7.8289-2.0501l1.1089 0.10115 1.288 1.9622 3.572 0.32584 1.6217-1.6968 53.051 4.8393 0.75751-8.3044c0.04933-0.54058-0.34895-1.0188-0.88954-1.0681-19.393-1.701-33.915-3.1795-52.047-4.9017l-1.5949 1.664-3.6118-0.33348-1.2948-1.9442c-2.6983-0.25216-1.9977-0.19237-4.7835-0.44669z" fill="#3771c8"/>
   <path d="m76.187 59.229c-0.32975 0.08834-0.5242 0.42512-0.43597 0.75511l0.96879 3.6236c0.08823 0.32999 0.42473 0.52454 0.75448 0.4362l0.55997-0.15001 0.59375 2.4399 1.3585-2.9629 6.1681-1.6524c0.32976-0.08834 0.5242-0.42512 0.43597-0.75511l-0.96879-3.6236c-0.08823-0.33-0.42472-0.52454-0.75448-0.4362z"/>
  </g>
  <g transform="matrix(.93202 -.24968 .24936 .93269 -83.849 -20.783)">
   <g transform="matrix(1.414 0 0 1.414 -61.149 -52.941)">
    <circle cx="146.96" cy="126.59" r=".97168" fill="none" stroke="#0f0" stroke-width=".175"/>
    <g transform="translate(.06615 -.013882)" fill="#0f0">
     <rect transform="scale(1,-1)" x="146.33" y="-126.69" width="1.1241" height=".175" ry="0"/>
     <rect transform="matrix(0,1,1,0,0,0)" x="126.04" y="146.81" width="1.1241" height=".175" ry="0"/>
    </g>
   </g>
  </g>
  <path d="m151.75 14.955c-13.28-3.5583-24.85-3.4373-25.844 0.27035-6e-3 0.03881-0.0125 0.07762-0.0169 0.11691l-0.0134-0.0036-20.325 75.855c-0.63692 2.3764 0.77337 4.819 3.1498 5.4556l69.92 18.735c0.47665 0.1277 0.96657-0.15515 1.0943-0.6318l1.0616-3.9618-66.606-17.847c-2.9042-0.77818-4.6157-3.7425-3.8375-6.6468l14.599-54.483c0.77818-2.9042 3.7425-4.6157 6.6468-3.8375l6.6348 1.7778 0.93564 2.1526 3.4646 0.92835 1.8866-1.3964 53.684 14.385 2.523-9.4161c0.14052-0.52434-0.17066-1.0633-0.69501-1.2038l-22.405-6.0033c-0.0347-0.11318-0.17231-0.29535-0.43196-0.56621-1.0242-1.0683-3.9454-3.516-5.5793-4.8403-0.6967-0.56468-1.1588-0.92428-1.4721-1.0948-4.1034-2.8765-10.895-5.7388-18.375-7.744z" fill="#fc0"/>
  <g>
   <path d="m128.59 27.028c-1.2699-0.34046-2.5791 0.42719-2.9238 1.7144l-1.1905 4.443c-0.37037 1.3824 0.43517 2.7993 1.7992 3.1645l9.3875 2.5154 0.91675 2.1475 3.4183 0.91592 1.8677-1.4014 44.779 11.999c0.399 0.10687 0.81027-0.1343 0.91866-0.53869l2.0932-7.8118c0.10833-0.4044-0.12726-0.81889-0.52624-0.92584l-44.779-11.999-1.8677 1.4014-3.4183-0.91592-0.91674-2.1475z" fill="#37c8ab"/>
   <path d="m127.4 45.833c-1.2699-0.34046-2.5791 0.42719-2.9238 1.7144l-1.1905 4.443c-0.37037 1.3824 0.43517 2.7993 1.7992 3.1645l5.8517 1.568 0.91675 2.1475 3.4182 0.91592 1.8677-1.4014 49.835 13.353c0.399 0.10686 0.81027-0.1343 0.91865-0.53869l2.0932-7.8118c0.10833-0.40441-0.12727-0.81889-0.52624-0.92584l-49.835-13.353-1.8677 1.4014-3.4182-0.91592-0.91675-2.1475z" fill="#aa87de"/>
   <path d="m124.97 54.871c-1.2699-0.34046-2.5791 0.4272-2.9238 1.7144l-1.1905 4.443c-0.37037 1.3824 0.43517 2.7993 1.7992 3.1645l5.8517 1.568 0.91675 2.1475 3.4182 0.91592 1.8677-1.4014 42.209 11.31c0.399 0.10687 0.81027-0.13429 0.91865-0.53869l2.0932-7.8118c0.10833-0.4044-0.12727-0.81888-0.52624-0.92584l-42.208-11.31-1.8677 1.4014-3.4182-0.91592-0.91675-2.1475z" fill="#87deaa"/>
   <path d="m114.78 79.324c-1.2699-0.34046-2.5791 0.4272-2.9238 1.7144l-1.1905 4.443c-0.37038 1.3824 0.43517 2.7993 1.7992 3.1645l9.3867 2.5152 0.91674 2.1475 3.4183 0.91592 1.8677-1.4014 47.864 12.825c0.39899 0.10687 0.81026-0.13429 0.91865-0.53869l2.0932-7.8118c0.10833-0.4044-0.12726-0.81888-0.52623-0.92584l-47.864-12.825-1.8677 1.4014-3.4183-0.91592-0.91674-2.1475z" fill="#ff8080"/>
   <path d="m148.95 53.111c-0.28688-0.07687-0.59487 0.14961-0.69096 0.50821l-1.0364 3.868c7e-3 -0.0261 0.0141-0.05638 0.0195-0.08835l-0.0488 0.18219s0.0101-0.02627 0.0222-0.06735l-0.24489 0.91396c-0.0961 0.3586 0.0573 0.70923 0.34415 0.7861l26.549 7.1138c0.28688 0.07687 0.59501-0.1501 0.6911-0.5087l1.2884-4.8084c0.0961-0.3586-0.0574-0.70874-0.34429-0.78561zm-1.708 4.2877 0.75006-2.7993c-0.0795 0.21346-0.31461 0.51672-0.93461-0.39541-1.1995-0.32141-2.0485 2.7837-0.83512 3.1167 1.008-0.58833 1.0648-0.18738 1.0197 0.07795zm0.75006-2.7993c0.0268-0.07295 0.0362-0.13527 0.0362-0.13527z" fill="#ffe680"/>
   <path d="m117.2 70.118c-1.2699-0.34046-2.5791 0.42719-2.9238 1.7144l-1.1905 4.443c-0.37036 1.3824 0.43518 2.7993 1.7992 3.1645l9.3875 2.5154 0.91674 2.1475 3.4183 0.91592 1.8677-1.4014 55.079 14.758c0.399 0.10686 0.81027-0.1343 0.91866-0.53869l2.0932-7.8118c0.10833-0.4044-0.12726-0.81889-0.52624-0.92584l-55.079-14.758-1.8677 1.4014-3.4182-0.91592-0.91675-2.1475z" fill="#37c8ab"/>
   <path d="m135.17 76.509c-0.28688-0.07687-0.59487 0.14961-0.69095 0.50821l-1.0364 3.868c7e-3 -0.0261 0.0141-0.05638 0.0195-0.08835l-0.0488 0.18219s0.0101-0.02627 0.0222-0.06735l-0.2449 0.91396c-0.0961 0.3586 0.0573 0.70923 0.34415 0.7861l20.611 5.5228c0.28688 0.07687 0.59501-0.1501 0.6911-0.5087l1.2884-4.8084c0.0961-0.3586-0.0574-0.70873-0.3443-0.7856zm-1.708 4.2877 0.75007-2.7993c-0.0795 0.21346-0.31461 0.51673-0.93461-0.39541-1.1995-0.32141-2.0485 2.7837-0.83513 3.1167 1.008-0.58834 1.0648-0.18738 1.0197 0.07795zm0.75007-2.7993c0.0268-0.07295 0.0362-0.13527 0.0362-0.13527z" fill="#80ff80"/>
   <path d="m139.1 87.145c-0.28688-0.07687-0.59487 0.1496-0.69096 0.5082l-1.0364 3.868c7e-3 -0.0261 0.0141-0.05638 0.0195-0.08835l-0.0488 0.18219s0.0101-0.02627 0.0222-0.06735l-0.2449 0.91396c-0.0961 0.3586 0.0573 0.70923 0.34415 0.7861l29.866 8.0024c0.28688 0.0769 0.59501-0.15011 0.6911-0.50871l1.2884-4.8084c0.0961-0.3586-0.0574-0.70873-0.34429-0.7856zm-1.708 4.2877 0.75006-2.7993c-0.0795 0.21346-0.31461 0.51673-0.9346-0.39541-1.1995-0.32141-2.0485 2.7837-0.83513 3.1167 1.008-0.58834 1.0648-0.18738 1.0197 0.07795zm0.75006-2.7993c0.0268-0.07295 0.0362-0.13527 0.0362-0.13527z" fill="#e9c6af"/>
   <path d="m163.22 84.026c-0.28688-0.07687-0.59487 0.14961-0.69096 0.50821l-1.0364 3.868c7e-3 -0.0261 0.0141-0.05638 0.0195-0.08835l-0.0488 0.18219s0.0101-0.02627 0.0222-0.06735l-0.24489 0.91396c-0.0961 0.3586 0.0573 0.70923 0.34415 0.7861l20.611 5.5228c0.28688 0.07687 0.59501-0.1501 0.6911-0.5087l1.2884-4.8084c0.0961-0.3586-0.0574-0.70873-0.34429-0.7856zm-1.708 4.2878 0.75006-2.7993c-0.0794 0.21346-0.31461 0.51672-0.93461-0.39541-1.1995-0.32141-2.0485 2.7837-0.83512 3.1167 1.008-0.58834 1.0648-0.18739 1.0197 0.07795zm0.75006-2.7993c0.0268-0.07295 0.0362-0.13527 0.0362-0.13527z" fill="#2aff80"/>
   <path d="m131.12 37.247c-0.75544-0.20247-1.5144-0.4058-2.2778-0.6098-2.6018-0.64806-5.3296 0.52124-6.1004 3.3976-2.7641 10.209-4.0453 15.043-6.7891 25.283-0.63692 2.3763 0.77338 4.819 3.1498 5.4556l7.4693 2.0014 0.94316 2.1305 3.5025 0.94264 1.8707-1.3809 50.575 13.552c0.47664 0.1277 0.96657-0.15515 1.0943-0.63178l1.0616-3.9618-58.819-15.76c-2.9042-0.77818-7.3206-2.6306-6.5246-5.53l3.9928-14.543c0.79603-2.8994 5.0611-0.98331 7.9653-0.20514l1.0755 0.28819 0.93564 2.1526 3.4646 0.92835 1.8866-1.3964 51.456 13.788 2.1582-8.0547c0.14051-0.52433-0.17067-1.0633-0.69501-1.2038-18.821-4.9731-32.881-8.8988-50.456-13.678l-1.8545 1.3686-3.5025-0.94264-0.94545-2.136c-2.6161-0.7072-1.9359-0.52918-4.638-1.2534z" fill="#3771c8"/>
  </g>
  <g transform="matrix(.72674 .20113 -.20113 .72674 117.5 -94.629)">
   <circle cx="142.21" cy="140.73" r="2.9766"/>
   <path x="135.96275" y="143.90025" width="12.501562" height="5.8539062" d="m142.2 143.9a6.0641 6.0641 43.047 0 1 6.2673 5.8539h-12.502a6.0471 6.0471 136.8 0 1 6.2342-5.8539z"/>
   <g transform="matrix(1.8674 0 0 1.8674 -129.3 -88.867)">
    <circle cx="146.96" cy="126.59" r=".97168" fill="none" stroke="#0f0" stroke-width=".175"/>
    <g transform="translate(.06615 -.013882)" fill="#0f0">
     <rect transform="scale(1,-1)" x="146.33" y="-126.69" width="1.1241" height=".175" ry="0"/>
     <rect transform="matrix(0,1,1,0,0,0)" x="126.04" y="146.81" width="1.1241" height=".175" ry="0"/>
    </g>
   </g>
  </g>
  <g transform="rotate(-10.227 238.72 130.45)">
   <path d="m216.79 91.909c-13.478 2.712-23.79 7.9609-23.033 11.724 0.0116 0.0376 0.0233 0.0751 0.0367 0.11227l-0.0136 3e-3 12.979 65.508c0.48514 2.4119 2.8338 3.9738 5.2457 3.4883l70.964-14.279c0.48377-0.0973 0.79702-0.56841 0.69969-1.0522l-0.80907-4.021-67.601 13.602c-2.9476 0.59309-5.8112-1.2996-6.391-4.2499l-8.466-43.079c-0.57979-2.9502 1.3023-5.7979 4.2499-6.391l6.7339-1.355 1.7946 1.5128 3.5164-0.70754 1.0698-2.0892 54.486-10.963-2.0717-10.295c-0.10706-0.53218-0.62529-0.87679-1.1575-0.76969l-22.739 4.5754c-0.0814-0.08598-0.28559-0.18805-0.63855-0.31535-1.3922-0.50211-5.0967-1.3971-7.1489-1.8576-0.87504-0.19637-1.4488-0.31325-1.8052-0.32676-4.9542-0.75402-12.31-0.30102-19.902 1.2256z" fill="#fc0"/>
   <g>
    <path d="m209.92 155c-1.289 0.25917-2.1208 1.5285-1.8578 2.8349l0.90733 4.5094c0.28236 1.403 1.6335 2.3145 3.0178 2.0358l9.653-1.9175 1.7754 1.5167 3.4693-0.69807 1.0506-2.0853 45.448-9.1444c0.40493-0.0815 0.66624-0.48029 0.58369-0.89074l-1.595-7.9285c-0.0826-0.41043-0.47783-0.67709-0.88278-0.59566l-45.448 9.1444-1.0506 2.0853-3.4693 0.69806-1.7754-1.5167z" fill="#cfa"/>
    <path d="m210.3 138.2c-1.289 0.25918-2.1208 1.5286-1.8578 2.8349l0.90734 4.5093c0.28236 1.4031 1.6335 2.3145 3.0178 2.0358l6.0225-1.2118 1.7754 1.5167 3.4693-0.69806 1.0506-2.0853 56.148-11.298c0.40494-0.0815 0.66625-0.48029 0.5837-0.89074l-1.595-7.9285c-0.0826-0.41043-0.47782-0.67711-0.88277-0.59566l-56.148 11.298-1.0506 2.0853-3.4693 0.69807-1.7754-1.5167z" fill="#37c8ab"/>
    <path d="m206.65 119.6c-1.289 0.25918-2.1208 1.5285-1.8578 2.8349l0.90734 4.5093c0.28235 1.4031 1.6335 2.3146 3.0178 2.0358l5.9391-1.195 1.7754 1.5167 3.4693-0.69807 1.0506-2.0853 53.71-10.807c0.40494-0.0815 0.66625-0.48029 0.5837-0.89074l-1.595-7.9285c-0.0826-0.41042-0.47782-0.67709-0.88277-0.59565l-53.71 10.807-1.0506 2.0853-3.4693 0.69806-1.7754-1.5167z" fill="#deaa87"/>
    <path d="m208.49 128.77c-1.289 0.25918-2.1208 1.5285-1.8578 2.8349l0.90733 4.5093c0.28236 1.403 1.6335 2.3146 3.0178 2.0358l5.9391-1.195 1.7754 1.5167 3.4693-0.69807 1.0506-2.0853 48.753-9.8098c0.40494-0.0815 0.66626-0.48028 0.5837-0.89073l-1.595-7.9285c-0.0826-0.41043-0.47782-0.67709-0.88277-0.59565l-48.753 9.8098-1.0506 2.0853-3.4693 0.69807-1.7754-1.5167z" fill="#8d5fd3"/>
    <path d="m240.49 123.74c-0.29117 0.0586-0.46648 0.39833-0.39325 0.76229l0.7899 3.9257c-5e-3 -0.0265-0.0124-0.0568-0.0217-0.0878l0.0372 0.18491s-3e-3 -0.028-0.01-0.0702l0.18664 0.92761c0.0732 0.36396 0.3664 0.60995 0.65756 0.55136l26.946-5.4215c0.29117-0.0586 0.46638-0.39882 0.39315-0.76277l-0.98195-4.8802c-0.0732-0.36396-0.36631-0.60946-0.65747-0.55087zm0.37476 4.6002-0.57166-2.8411c0.0236 0.22653-0.0523 0.6027-1.013 0.061-1.2174 0.24496-0.5985 3.404 0.63648 3.1633 0.64167-0.9749 0.87066-0.64091 0.94815-0.38318zm-0.57166-2.8411c-8e-3 -0.0773-0.0276-0.13729-0.0276-0.13729z" fill="#de87aa"/>
    <path d="m226.98 136.75c-0.29116 0.0586-0.46648 0.39833-0.39324 0.76228l0.7899 3.9257c-5e-3 -0.0265-0.0124-0.0568-0.0217-0.0878l0.0372 0.18492s-3e-3 -0.028-0.01-0.0702l0.18665 0.92761c0.0732 0.36395 0.36639 0.60995 0.65756 0.55136l20.327-4.0897c0.29116-0.0586 0.46637-0.39883 0.39315-0.76279l-0.98196-4.8802c-0.0732-0.36395-0.36631-0.60944-0.65747-0.55085zm0.37477 4.6002-0.57167-2.8411c0.0236 0.22653-0.0523 0.6027-1.013 0.061-1.2174 0.24496-0.59849 3.404 0.63649 3.1633 0.64166-0.97489 0.87065-0.64091 0.94815-0.38318zm-0.57167-2.8411c-8e-3 -0.0773-0.0276-0.13729-0.0276-0.13729z" fill="#c4b7c8"/>
    <path d="m257.13 130.68c-0.29117 0.0586-0.46647 0.39831-0.39324 0.76227l0.78991 3.9257c-5e-3 -0.0265-0.0124-0.0568-0.0217-0.0878l0.0372 0.18491s-3e-3 -0.028-0.01-0.0702l0.18664 0.92761c0.0732 0.36396 0.3664 0.60995 0.65756 0.55137l16.944-3.4097c0.29117-0.0586 0.46638-0.39882 0.39315-0.76277l-0.98195-4.8802c-0.0732-0.36396-0.36631-0.60945-0.65747-0.55087zm0.37477 4.6002-0.57166-2.8411c0.0236 0.22654-0.0523 0.6027-1.013 0.061-1.2174 0.24497-0.5985 3.404 0.63649 3.1633 0.64166-0.9749 0.87065-0.6409 0.94814-0.38318zm-0.57166-2.8411c-8e-3 -0.0773-0.0276-0.13729-0.0276-0.13729z" fill="#aade87"/>
    <path d="m206.5 112.1c-0.76675 0.15423-1.537 0.30926-2.3116 0.46563-2.6188 0.57529-4.1723 4.6797-3.5849 7.599 2.0592 10.374 4.1232 20.563 6.2144 30.956 0.48512 2.4119 2.8338 3.9738 5.2457 3.4883l7.5809-1.5252 1.7915 1.4897 3.5566-0.71198 1.0624-2.0682 51.331-10.328c0.48376-0.0973 0.79701-0.56841 0.69969-1.0522l-0.80906-4.0209-59.697 12.012c-2.9476 0.5931-7.7466 0.89931-8.3021-2.0556l-4.3942-23.375c-0.0199-0.10608-0.17781-0.42559-0.17781-0.42559-0.20672-2.7039 4.0348-3.3777 6.8766-3.9495l1.0916-0.21965 1.7946 1.5128 3.5164-0.70753 1.0698-2.0892 52.225-10.508-1.2239-5.552c-0.10707-0.53217-0.6253-0.87679-1.1575-0.76969-19.071 3.9064-33.411 6.1032-51.28 9.6293l-1.0534 2.05-3.5567 0.7116-1.796-1.4936c-2.658 0.52867-1.9695 0.38596-4.712 0.93764z" fill="#3771c8"/>
   </g>
   <g transform="rotate(2.8231 264.42 100.7)">
    <g transform="matrix(1.0881 -.15489 .15489 1.0881 -38.456 32.578)">
     <rect transform="rotate(-7.2008)" x="247.01" y="123" width=".49717" height="9.4462"/>
     <g transform="matrix(.53264 -.067296 .067296 .53264 180.87 11.712)">
      <rect x="129.51" y="165.23" width="6.9122" height="6.5815" ry="0"/>
      <path d="m136.43 165.56h6.9122v6.5815h-6.9122z" stroke-width=".175"/>
      <g transform="translate(-5.332 .10392)">
       <ellipse transform="matrix(1 5.3736e-5 -.00055103 1 0 0)" cx="146.49" cy="169.78" rx="1.8836" ry="1.8847" fill="none" stroke="#f00" stroke-width=".33933"/>
       <rect transform="matrix(1 5.3736e-5 .00055103 -1 0 0)" x="145.4" y="-169.94" width="2.179" height=".33943" ry="0" fill="#f00"/>
      </g>
     </g>
    </g>
   </g>
  </g>
 </g>
</svg>
