<?xml version="1.0" encoding="UTF-8"?>
<!-- Created with Inkscape (http://www.inkscape.org/) -->
<svg width="287.79mm" height="188.43mm" version="1.1" viewBox="0 0 287.79 188.43" xmlns="http://www.w3.org/2000/svg">
 <g transform="translate(-10.948 -8.8886)">
  <g>
   <rect x="10.948" y="8.8886" width="287.79" height="188.43" rx="0" fill="#131415" stroke-width=".26458"/>
   <rect x="18.375" y="14.653" width="272.94" height="176.9" ry="2.8431" fill="#202225"/>
   <rect x="22.027" y="19.294" width="18.406" height="167.62" ry="2.4008" fill="#2f3136" stroke-width="1.0058"/>
   <rect x="42.96" y="19.294" width="49.238" height="167.62" ry="2.4008" fill="#2f3136" stroke-width="1.645"/>
   <rect x="42.96" y="173.71" width="49.238" height="13.205" ry="2.0534" fill="#292b2f" stroke-width=".46172"/>
   <rect x="244.51" y="19.294" width="39.735" height="167.62" ry="2.4008" fill="#2f3136" stroke-width="1.4778"/>
   <rect x="96.13" y="177.05" width="143.91" height="9.8648" ry="1.0298" fill="#40444b" stroke-width=".68225"/>
   <g stroke="#000">
    <rect x="92.198" y="19.294" width="152.31" height="9.8648" ry="1.0298" fill="#2f3136" stroke-width=".13229"/>
    <g stroke-width=".12615">
     <circle cx="31.319" cy="30.691" r="7.0716" fill="#c8b7b7"/>
     <circle cx="31.319" cy="48.795" r="7.0716" fill="#87de87"/>
     <circle cx="31.319" cy="66.898" r="7.0716" fill="#aade87"/>
     <circle cx="31.319" cy="85.002" r="7.0716" fill="#80b3ff"/>
     <circle cx="31.319" cy="103.1" r="7.0716" fill="#b380ff"/>
     <circle cx="31.319" cy="121.21" r="7.0716" fill="#55f"/>
     <circle cx="31.319" cy="139.31" r="7.0716" fill="#95f"/>
     <circle cx="31.319" cy="157.41" r="7.0716" fill="#ff80b2"/>
     <circle cx="31.319" cy="175.52" r="7.0716" fill="#8080ff"/>
    </g>
   </g>
   <circle cx="49.748" cy="180.31" r="4.8696" fill="#c8b7b7"/>
   <circle cx="252.28" cy="31.891" r="4.8696" fill="#faa"/>
   <circle cx="252.28" cy="46.087" r="4.8696" fill="#80ff80"/>
   <circle cx="252.28" cy="66.156" r="4.8696" fill="#5df"/>
   <circle cx="252.28" cy="80.428" r="4.8696" fill="#95f"/>
   <circle cx="252.28" cy="94.701" r="4.8696" fill="#fae"/>
   <circle cx="252.28" cy="113.73" r="4.8696" fill="#ffe680"/>
   <circle cx="252.28" cy="128" r="4.8696" fill="#c8b7b7"/>
   <circle cx="252.28" cy="142.27" r="4.8696" fill="#e9afaf"/>
   <circle cx="252.28" cy="156.55" r="4.8696" fill="#e5ff80"/>
   <circle cx="252.28" cy="170.82" r="4.8696" fill="#5f5fd3"/>
  </g>
  <g fill="#808080">
   <rect x="57.186" y="177.65" width="14.787" height="2.4125" ry=".34749" opacity=".5"/>
   <rect x="49.27" y="35.448" width="30.96" height="2.4125" ry=".34749" opacity=".5"/>
   <rect x="50.843" y="40.287" width="20.787" height="2.4125" ry=".34749" opacity=".5"/>
   <rect x="57.186" y="180.73" width="7.7745" height="2.4125" ry=".34749" opacity=".5"/>
   <rect x="247.64" y="22.174" width="26.36" height="2.4125" ry=".34749" opacity=".5"/>
   <rect x="258.6" y="30.022" width="20.046" height="2.4125" ry=".34749" opacity=".5"/>
  </g>
  <g transform="translate(-.086319)">
   <circle cx="100.41" cy="38.62" r="4.8696" fill="#59f"/>
   <g fill="#808080">
    <rect x="107.57" y="37.251" width="20.046" height="2.4125" ry=".34749" opacity=".5"/>
    <rect x="95.541" y="45.449" width="75.897" height="2.4125" ry=".34749" opacity=".5"/>
    <rect x="95.518" y="48.777" width="101.54" height="2.4125" ry=".34749" opacity=".5"/>
   </g>
  </g>
  <g transform="translate(-.035001 -.38477)">
   <circle cx="100.34" cy="82.645" r="4.8696" fill="#afa"/>
   <rect x="107.5" y="81.275" width="28.41" height="2.4125" ry=".34749" fill="#808080" opacity=".5"/>
   <rect x="95.467" y="89.474" width="84.819" height="2.4125" ry=".34749" fill="#808080" opacity=".5"/>
  </g>
  <g transform="translate(-.003006 -.48261)">
   <circle cx="100.35" cy="99.525" r="4.8696" fill="#bec8b7"/>
   <g fill="#808080">
    <rect x="107.51" y="98.155" width="29.497" height="2.4125" ry=".34749" opacity=".5"/>
    <rect x="95.478" y="106.35" width="97.596" height="2.4125" ry=".34749" opacity=".5"/>
    <rect x="95.453" y="109.68" width="103.03" height="2.4125" ry=".34749" opacity=".5"/>
    <rect x="95.435" y="112.89" width="85.339" height="2.4125" ry=".34749" opacity=".5"/>
    <rect x="95.442" y="116.05" width="90.879" height="2.4125" ry=".34749" opacity=".5"/>
   </g>
  </g>
  <g transform="translate(0 .17696)">
   <circle cx="100.34" cy="125.35" r="4.8696" fill="#faa"/>
   <g fill="#808080">
    <rect x="107.51" y="123.98" width="22.85" height="2.4125" ry=".34749" opacity=".5"/>
    <rect x="95.475" y="132.18" width="60.426" height="2.4125" ry=".34749" opacity=".5"/>
    <rect x="95.45" y="135.5" width="64.788" height="2.4125" ry=".34749" opacity=".5"/>
    <rect x="95.432" y="138.71" width="54.424" height="2.4125" ry=".34749" opacity=".5"/>
   </g>
  </g>
  <g transform="translate(-.025312 .30614)">
   <circle cx="100.33" cy="148.54" r="4.8696" fill="#ffb380"/>
   <rect x="107.49" y="147.17" width="8.3184" height="2.4125" ry=".34749" fill="#808080" opacity=".5"/>
   <rect x="95.457" y="155.37" width="85.319" height="2.4125" ry=".34749" fill="#808080" opacity=".5"/>
  </g>
  <g transform="translate(-.04836)">
   <circle cx="100.35" cy="165.63" r="4.8696" fill="#5fbcd3"/>
   <rect x="107.51" y="164.26" width="17.543" height="2.4125" ry=".34749" fill="#808080" opacity=".5"/>
   <rect x="95.48" y="172.46" width="49.18" height="2.4125" ry=".34749" fill="#808080" opacity=".5"/>
  </g>
  <g transform="translate(-.011459 -.27678)">
   <circle cx="100.35" cy="59.006" r="4.8696" fill="#ddafe9"/>
   <g fill="#808080">
    <rect x="107.51" y="57.637" width="12.362" height="2.4125" ry=".34749" opacity=".5"/>
    <rect x="95.476" y="65.836" width="80.017" height="2.4125" ry=".34749" opacity=".5"/>
    <rect x="95.453" y="69.163" width="69.066" height="2.4125" ry=".34749" opacity=".5"/>
    <rect x="95.443" y="72.584" width="92.119" height="2.4125" ry=".34749" opacity=".5"/>
   </g>
  </g>
  <g fill="#808080">
   <rect x="258.69" y="42.915" width="16.293" height="2.4125" ry=".34749" opacity=".5"/>
   <rect x="258.69" y="62.662" width="14.271" height="2.4125" ry=".34749" opacity=".5"/>
   <rect x="258.69" y="66.37" width="18.616" height="2.4125" ry=".34749" opacity=".5"/>
   <rect x="258.69" y="79.192" width="16.338" height="2.4125" ry=".34749" opacity=".5"/>
   <rect x="258.69" y="112.4" width="9.7671" height="2.4125" ry=".34749" opacity=".5"/>
   <rect x="258.69" y="126.56" width="18.36" height="2.4125" ry=".34749" opacity=".5"/>
   <rect x="258.69" y="139.08" width="15.075" height="2.4125" ry=".34749" opacity=".5"/>
   <rect x="258.69" y="142.92" width="17.728" height="2.4125" ry=".34749" opacity=".5"/>
   <rect x="258.69" y="153.43" width="20.856" height="2.4125" ry=".34749" opacity=".5"/>
   <rect x="258.69" y="157.25" width="16.748" height="2.4125" ry=".34749" opacity=".5"/>
   <rect x="258.69" y="169.4" width="17.91" height="2.4125" ry=".34749" opacity=".5"/>
   <rect x="258.69" y="91.207" width="10.651" height="2.4125" ry=".34749" opacity=".5"/>
   <rect x="258.69" y="94.946" width="13.431" height="2.4125" ry=".34749" opacity=".5"/>
   <rect x="258.69" y="46.132" width="12.54" height="2.4125" ry=".34749" opacity=".5"/>
   <rect x="246.93" y="54.593" width="20.82" height="2.4125" ry=".34749" opacity=".5"/>
   <rect x="246.53" y="102.87" width="31.006" height="2.4125" ry=".34749" opacity=".5"/>
  </g>
  <g>
   <rect x="76.009" y="178.73" width="3.5418" height="3.1701" ry=".45662" fill="#e6e6e6" opacity=".5"/>
   <rect x="81.13" y="178.73" width="3.5418" height="3.1701" ry=".45662" fill="#ececec" opacity=".5"/>
   <rect x="86.251" y="178.73" width="3.5418" height="3.1701" ry=".45662" fill="#ececec" opacity=".5"/>
  </g>
  <g fill="#999">
   <rect x="98.091" y="180.4" width="3.5418" height="3.1701" ry=".45662" opacity=".5"/>
   <rect x="225.44" y="180.4" width="3.5418" height="3.1701" ry=".45662" opacity=".5"/>
   <rect x="220.9" y="180.4" width="3.5418" height="3.1701" ry=".45662" opacity=".5"/>
   <rect x="229.98" y="180.4" width="3.5418" height="3.1701" ry=".45662" opacity=".5"/>
   <rect x="234.52" y="180.4" width="3.5418" height="3.1701" ry=".45662" opacity=".5"/>
  </g>
  <g fill="#808080">
   <rect x="50.843" y="43.746" width="23.914" height="2.4125" ry=".34749" opacity=".5"/>
   <rect x="50.843" y="47.205" width="22.456" height="2.4125" ry=".34749" opacity=".5"/>
   <rect x="50.843" y="62.017" width="20.743" height="2.4125" ry=".34749" opacity=".5"/>
  </g>
  <rect x="50.843" y="65.476" width="14.622" height="2.4125" ry=".34749" fill="#ccc" opacity=".5"/>
  <g fill="#808080">
   <rect x="50.843" y="68.936" width="18.747" height="2.4125" ry=".34749" opacity=".5"/>
   <rect x="50.843" y="72.327" width="20.706" height="2.4125" ry=".34749" opacity=".5"/>
   <rect x="50.843" y="75.767" width="19.321" height="2.4125" ry=".34749" opacity=".5"/>
   <rect x="50.843" y="50.665" width="17.318" height="2.4125" ry=".34749" opacity=".5"/>
  </g>
  <g transform="matrix(.13837 0 0 .13837 91.096 4.792)" fill="#999" stroke-width=".13229">
   <path d="m42.589 129.17h4.6302l-3.695 22.567h-4.6302z"/>
   <path d="m55.217 129.17h4.6302l-3.695 22.567h-4.6302z"/>
   <rect x="37.792" y="133.49" width="24.602" height="3.7885"/>
   <rect x="36.389" y="143.29" width="24.602" height="3.7885"/>
  </g>
  <text x="44.780972" y="26.107635" fill="#000000" font-family="Calibri" font-size="5.7559px" stroke-width=".1439" style="line-height:1.25" xml:space="preserve"><tspan x="44.780972" y="26.107635" fill="#ffffff" font-family="Calibri" stroke-width=".1439">Disblock</tspan></text>
  <path d="m82.155 23.571 1.3337 1.5515 1.2762-1.5092" fill="none" stroke="#f7ffff" stroke-width=".20543px"/>
  <path d="m44.681 35.833 1.3337 1.5515 1.2762-1.5092" fill="none" stroke="#6c7171" stroke-width=".20543px"/>
  <rect x="49.27" y="57.161" width="25.332" height="2.4125" ry=".34749" fill="#808080" opacity=".5"/>
  <path d="m44.681 57.546 1.3337 1.5515 1.2762-1.5092" fill="none" stroke="#6c7171" stroke-width=".20543px"/>
  <g fill="#808080">
   <rect x="50.843" y="86.856" width="13.73" height="2.4125" ry=".34749" opacity=".5"/>
   <rect x="50.843" y="90.315" width="16.644" height="2.4125" ry=".34749" opacity=".5"/>
   <rect x="50.843" y="93.774" width="15.209" height="2.4125" ry=".34749" opacity=".5"/>
   <rect x="50.843" y="97.166" width="18.495" height="2.4125" ry=".34749" opacity=".5"/>
   <rect x="50.843" y="100.61" width="17.489" height="2.4125" ry=".34749" opacity=".5"/>
   <rect x="49.27" y="82" width="19.613" height="2.4125" ry=".34749" opacity=".5"/>
  </g>
  <path d="m44.681 82.384 1.3337 1.5515 1.2762-1.5092" fill="none" stroke="#6c7171" stroke-width=".20543px"/>
  <text x="101.82931" y="25.07099" fill="#ececec" font-family="Calibri" font-size="3.7668px" stroke-width=".094171" style="line-height:1.25" xml:space="preserve"><tspan x="101.82931" y="25.07099" fill="#ececec" font-family="Calibri" stroke-width=".094171">support</tspan></text>
 </g>
</svg>
